<svg width="333" height="39" viewBox="0 0 333 39" fill="none" xmlns="http://www.w3.org/2000/svg">
<g clip-path="url(#clip0_57_3453)">
<rect width="50" height="50" fill="white"/>
<path d="M17.2279 20.0003L20.3259 16.8578C20.5214 16.6608 20.5214 16.3408 20.3259 16.1438C20.1304 15.9468 19.8139 15.9468 19.6189 16.1438L16.1694 19.6433C15.9819 19.8328 15.9809 20.1673 16.1694 20.3578L19.6194 23.8573C19.8144 24.0543 20.1314 24.0543 20.3264 23.8573C20.5219 23.6603 20.5219 23.3403 20.3264 23.1433L17.2279 20.0003Z" fill="#121313"/>
<path d="M20.7279 20.0003L23.8259 16.8578C24.0214 16.6608 24.0214 16.3408 23.8259 16.1438C23.6304 15.9468 23.3139 15.9468 23.1189 16.1438L19.6694 19.6433C19.4819 19.8328 19.4809 20.1673 19.6694 20.3578L23.1189 23.8573C23.3144 24.0543 23.6309 24.0543 23.8259 23.8573C24.0214 23.6603 24.0214 23.3403 23.8259 23.1433L20.7279 20.0003Z" fill="#121313"/>
</g>
<g clip-path="url(#clip1_57_3453)">
<rect x="49" width="50" height="50" fill="white"/>
<path d="M68.1413 26V16.97C68.0386 17.026 67.922 17.082 67.7913 17.138C67.6606 17.194 67.5206 17.2547 67.3713 17.32C67.2313 17.376 67.0913 17.432 66.9513 17.488C66.8206 17.544 66.6993 17.6 66.5873 17.656V15.92C66.69 15.864 66.8346 15.7893 67.0213 15.696C67.208 15.5933 67.4086 15.4813 67.6233 15.36C67.838 15.2387 68.0386 15.1173 68.2253 14.996C68.412 14.8653 68.552 14.7533 68.6453 14.66H70.4793V26H68.1413Z" fill="#222222"/>
</g>
<g clip-path="url(#clip2_57_3453)">
<rect x="98" width="50" height="50" fill="#BEAD8E"/>
<path d="M114.978 26V24.348L117.694 20.176C117.9 19.868 118.091 19.5693 118.268 19.28C118.455 18.9907 118.604 18.6967 118.716 18.398C118.838 18.0993 118.898 17.7867 118.898 17.46C118.898 17.1333 118.833 16.8907 118.702 16.732C118.572 16.5733 118.394 16.494 118.17 16.494C117.918 16.494 117.722 16.564 117.582 16.704C117.442 16.844 117.344 17.0307 117.288 17.264C117.242 17.4973 117.218 17.7587 117.218 18.048V18.608H114.95V18.006C114.95 17.334 115.058 16.7367 115.272 16.214C115.487 15.682 115.828 15.2667 116.294 14.968C116.761 14.66 117.372 14.506 118.128 14.506C119.146 14.506 119.911 14.772 120.424 15.304C120.947 15.8267 121.208 16.5593 121.208 17.502C121.208 17.9593 121.134 18.384 120.984 18.776C120.844 19.168 120.653 19.5507 120.41 19.924C120.177 20.288 119.925 20.6707 119.654 21.072L117.582 24.166H120.9V26H114.978Z" fill="white"/>
</g>
<g clip-path="url(#clip3_57_3453)">
<rect x="147" width="50" height="50" fill="white"/>
<path d="M167.058 26.21C166.265 26.21 165.64 26.0607 165.182 25.762C164.734 25.4633 164.412 25.048 164.216 24.516C164.03 23.9747 163.936 23.354 163.936 22.654V22.248H166.274C166.274 22.2573 166.274 22.3087 166.274 22.402C166.274 22.4953 166.274 22.5793 166.274 22.654C166.274 23.0273 166.298 23.3307 166.344 23.564C166.391 23.7973 166.475 23.97 166.596 24.082C166.718 24.1847 166.886 24.236 167.1 24.236C167.315 24.236 167.474 24.18 167.576 24.068C167.688 23.956 167.763 23.788 167.8 23.564C167.838 23.34 167.856 23.06 167.856 22.724C167.856 22.164 167.777 21.7393 167.618 21.45C167.469 21.1513 167.152 20.9973 166.666 20.988C166.657 20.988 166.606 20.988 166.512 20.988C166.419 20.988 166.326 20.988 166.232 20.988V19.378C166.298 19.378 166.363 19.378 166.428 19.378C166.494 19.378 166.554 19.378 166.61 19.378C167.105 19.378 167.436 19.2427 167.604 18.972C167.772 18.7013 167.856 18.2813 167.856 17.712C167.856 17.2733 167.796 16.9373 167.674 16.704C167.562 16.4707 167.348 16.354 167.03 16.354C166.722 16.354 166.517 16.4847 166.414 16.746C166.321 17.0073 166.274 17.3433 166.274 17.754C166.274 17.8473 166.274 17.9453 166.274 18.048C166.274 18.1413 166.274 18.2393 166.274 18.342H163.936V17.656C163.936 16.9747 164.058 16.4007 164.3 15.934C164.552 15.458 164.907 15.0987 165.364 14.856C165.831 14.6133 166.386 14.492 167.03 14.492C167.684 14.492 168.244 14.6087 168.71 14.842C169.177 15.0753 169.536 15.4207 169.788 15.878C170.04 16.326 170.166 16.886 170.166 17.558C170.166 18.2207 170.031 18.776 169.76 19.224C169.49 19.672 169.163 19.9473 168.78 20.05C169.042 20.1433 169.275 20.2927 169.48 20.498C169.695 20.7033 169.863 20.9833 169.984 21.338C170.106 21.6833 170.166 22.1267 170.166 22.668C170.166 23.3587 170.064 23.97 169.858 24.502C169.662 25.034 169.336 25.454 168.878 25.762C168.421 26.0607 167.814 26.21 167.058 26.21Z" fill="#222222"/>
</g>
<g clip-path="url(#clip4_57_3453)">
<rect x="196" width="50" height="50" fill="white"/>
<path d="M211.517 26V23.844H213.673V26H211.517ZM214.935 26V23.844H217.091V26H214.935ZM218.353 26V23.844H220.509V26H218.353Z" fill="#222222"/>
</g>
<g clip-path="url(#clip5_57_3453)">
<rect x="245" width="50" height="50" fill="white"/>
<path d="M260.293 26V16.97C260.19 17.026 260.073 17.082 259.943 17.138C259.812 17.194 259.672 17.2547 259.523 17.32C259.383 17.376 259.243 17.432 259.103 17.488C258.972 17.544 258.851 17.6 258.739 17.656V15.92C258.841 15.864 258.986 15.7893 259.173 15.696C259.359 15.5933 259.56 15.4813 259.775 15.36C259.989 15.2387 260.19 15.1173 260.377 14.996C260.563 14.8653 260.703 14.7533 260.797 14.66H262.631V26H260.293ZM267.722 26.21C267.041 26.21 266.471 26.0747 266.014 25.804C265.557 25.524 265.211 25.1413 264.978 24.656C264.745 24.1707 264.628 23.606 264.628 22.962V17.824C264.628 17.1613 264.735 16.5827 264.95 16.088C265.174 15.584 265.515 15.192 265.972 14.912C266.429 14.632 267.013 14.492 267.722 14.492C268.431 14.492 269.01 14.632 269.458 14.912C269.915 15.192 270.251 15.584 270.466 16.088C270.69 16.5827 270.802 17.1613 270.802 17.824V22.962C270.802 23.5967 270.685 24.1613 270.452 24.656C270.219 25.1413 269.873 25.524 269.416 25.804C268.959 26.0747 268.394 26.21 267.722 26.21ZM267.722 24.124C267.946 24.124 268.105 24.054 268.198 23.914C268.301 23.7647 268.361 23.5967 268.38 23.41C268.408 23.214 268.422 23.046 268.422 22.906V17.88C268.422 17.7213 268.413 17.544 268.394 17.348C268.375 17.1427 268.315 16.9653 268.212 16.816C268.119 16.6573 267.955 16.578 267.722 16.578C267.489 16.578 267.321 16.6573 267.218 16.816C267.125 16.9653 267.069 17.1427 267.05 17.348C267.031 17.544 267.022 17.7213 267.022 17.88V22.906C267.022 23.046 267.036 23.214 267.064 23.41C267.092 23.5967 267.153 23.7647 267.246 23.914C267.349 24.054 267.507 24.124 267.722 24.124Z" fill="#222222"/>
</g>
<g clip-path="url(#clip6_57_3453)">
<rect x="294" width="50" height="50" fill="white"/>
<path d="M316.772 20.0003L313.674 16.8578C313.479 16.6608 313.479 16.3408 313.674 16.1438C313.87 15.9468 314.186 15.9468 314.381 16.1438L317.831 19.6433C318.018 19.8328 318.019 20.1673 317.831 20.3578L314.381 23.8573C314.186 24.0543 313.869 24.0543 313.674 23.8573C313.478 23.6603 313.478 23.3403 313.674 23.1433L316.772 20.0003Z" fill="#121313"/>
<path d="M313.272 20.0003L310.174 16.8578C309.979 16.6608 309.979 16.3408 310.174 16.1438C310.37 15.9468 310.686 15.9468 310.881 16.1438L314.331 19.6433C314.518 19.8328 314.519 20.1673 314.331 20.3578L310.881 23.8573C310.686 24.0543 310.369 24.0543 310.174 23.8573C309.979 23.6603 309.979 23.3403 310.174 23.1433L313.272 20.0003Z" fill="#121313"/>
</g>
<defs>
<clipPath id="clip0_57_3453">
<rect width="39" height="39" fill="white"/>
</clipPath>
<clipPath id="clip1_57_3453">
<rect width="39" height="39" fill="white" transform="translate(49)"/>
</clipPath>
<clipPath id="clip2_57_3453">
<rect width="39" height="39" fill="white" transform="translate(98)"/>
</clipPath>
<clipPath id="clip3_57_3453">
<rect width="39" height="39" fill="white" transform="translate(147)"/>
</clipPath>
<clipPath id="clip4_57_3453">
<rect width="39" height="39" fill="white" transform="translate(196)"/>
</clipPath>
<clipPath id="clip5_57_3453">
<rect width="39" height="39" fill="white" transform="translate(245)"/>
</clipPath>
<clipPath id="clip6_57_3453">
<rect width="39" height="39" fill="white" transform="translate(294)"/>
</clipPath>
</defs>
</svg>
