<svg width="208" height="147" viewBox="0 0 208 147" fill="none" xmlns="http://www.w3.org/2000/svg">
<path d="M96.9688 60.9062V85.5156C96.9688 96.1927 95.8294 105.405 93.5508 113.152C91.2721 120.835 87.9844 127.15 83.6875 132.098C79.4557 136.98 74.4102 140.594 68.5508 142.938C62.6914 145.281 56.181 146.453 49.0195 146.453C43.2904 146.453 37.9518 145.737 33.0039 144.305C28.056 142.807 23.5964 140.496 19.625 137.371C15.7188 134.246 12.3333 130.307 9.46875 125.555C6.66927 120.737 4.52083 115.008 3.02344 108.367C1.52604 101.727 0.777344 94.1094 0.777344 85.5156V60.9062C0.777344 50.2292 1.91667 41.082 4.19531 33.4648C6.53906 25.7826 9.82682 19.5 14.0586 14.6172C18.3555 9.73438 23.4336 6.15365 29.293 3.875C35.1523 1.53125 41.6628 0.359375 48.8242 0.359375C54.5534 0.359375 59.8594 1.10807 64.7422 2.60547C69.6901 4.03776 74.1497 6.28385 78.1211 9.34375C82.0924 12.4036 85.4779 16.3424 88.2773 21.1602C91.0768 25.9128 93.2253 31.6094 94.7227 38.25C96.2201 44.8255 96.9688 52.3776 96.9688 60.9062ZM68.7461 89.2266V57.0977C68.7461 51.9544 68.4531 47.4622 67.8672 43.6211C67.3464 39.7799 66.5326 36.5247 65.4258 33.8555C64.319 31.1211 62.9518 28.9076 61.3242 27.2148C59.6966 25.5221 57.8411 24.2852 55.7578 23.5039C53.6745 22.7227 51.3633 22.332 48.8242 22.332C45.6341 22.332 42.8021 22.9505 40.3281 24.1875C37.9193 25.4245 35.8685 27.4102 34.1758 30.1445C32.4831 32.8138 31.181 36.3945 30.2695 40.8867C29.4232 45.3138 29 50.7174 29 57.0977V89.2266C29 94.3698 29.2604 98.8945 29.7812 102.801C30.3672 106.707 31.2135 110.06 32.3203 112.859C33.4922 115.594 34.8594 117.84 36.4219 119.598C38.0495 121.29 39.9049 122.527 41.9883 123.309C44.1367 124.09 46.4805 124.48 49.0195 124.48C52.1445 124.48 54.9115 123.862 57.3203 122.625C59.7943 121.323 61.8776 119.305 63.5703 116.57C65.3281 113.771 66.6302 110.125 67.4766 105.633C68.3229 101.141 68.7461 95.6719 68.7461 89.2266ZM207.375 122.527V144.5H110.109V125.75L156.105 76.4336C160.728 71.2904 164.374 66.7656 167.043 62.8594C169.712 58.888 171.633 55.3398 172.805 52.2148C174.042 49.0247 174.66 45.9974 174.66 43.1328C174.66 38.8359 173.944 35.1576 172.512 32.0977C171.079 28.9727 168.964 26.5638 166.164 24.8711C163.43 23.1784 160.044 22.332 156.008 22.332C151.711 22.332 148 23.3737 144.875 25.457C141.815 27.5404 139.471 30.4375 137.844 34.1484C136.281 37.8594 135.5 42.0586 135.5 46.7461H107.277C107.277 38.2826 109.296 30.5352 113.332 23.5039C117.368 16.4076 123.065 10.776 130.422 6.60938C137.779 2.3776 146.503 0.261719 156.594 0.261719C166.555 0.261719 174.953 1.88932 181.789 5.14453C188.69 8.33464 193.898 12.957 197.414 19.0117C200.995 25.0013 202.785 32.1628 202.785 40.4961C202.785 45.1836 202.036 49.7734 200.539 54.2656C199.042 58.6927 196.893 63.1198 194.094 67.5469C191.359 71.9089 188.039 76.3359 184.133 80.8281C180.227 85.3203 175.897 89.9753 171.145 94.793L146.438 122.527H207.375Z" fill="#F8F8F8"/>
</svg>
