<svg width="206" height="147" viewBox="0 0 206 147" fill="none" xmlns="http://www.w3.org/2000/svg">
<path d="M96.9688 61.4062V86.0156C96.9688 96.6927 95.8294 105.905 93.5508 113.652C91.2721 121.335 87.9844 127.65 83.6875 132.598C79.4557 137.48 74.4102 141.094 68.5508 143.438C62.6914 145.781 56.181 146.953 49.0195 146.953C43.2904 146.953 37.9518 146.237 33.0039 144.805C28.056 143.307 23.5964 140.996 19.625 137.871C15.7188 134.746 12.3333 130.807 9.46875 126.055C6.66927 121.237 4.52083 115.508 3.02344 108.867C1.52604 102.227 0.777344 94.6094 0.777344 86.0156V61.4062C0.777344 50.7292 1.91667 41.582 4.19531 33.9648C6.53906 26.2826 9.82682 20 14.0586 15.1172C18.3555 10.2344 23.4336 6.65365 29.293 4.375C35.1523 2.03125 41.6628 0.859375 48.8242 0.859375C54.5534 0.859375 59.8594 1.60807 64.7422 3.10547C69.6901 4.53776 74.1497 6.78385 78.1211 9.84375C82.0924 12.9036 85.4779 16.8424 88.2773 21.6602C91.0768 26.4128 93.2253 32.1094 94.7227 38.75C96.2201 45.3255 96.9688 52.8776 96.9688 61.4062ZM68.7461 89.7266V57.5977C68.7461 52.4544 68.4531 47.9622 67.8672 44.1211C67.3464 40.2799 66.5326 37.0247 65.4258 34.3555C64.319 31.6211 62.9518 29.4076 61.3242 27.7148C59.6966 26.0221 57.8411 24.7852 55.7578 24.0039C53.6745 23.2227 51.3633 22.832 48.8242 22.832C45.6341 22.832 42.8021 23.4505 40.3281 24.6875C37.9193 25.9245 35.8685 27.9102 34.1758 30.6445C32.4831 33.3138 31.181 36.8945 30.2695 41.3867C29.4232 45.8138 29 51.2174 29 57.5977V89.7266C29 94.8698 29.2604 99.3945 29.7812 103.301C30.3672 107.207 31.2135 110.56 32.3203 113.359C33.4922 116.094 34.8594 118.34 36.4219 120.098C38.0495 121.79 39.9049 123.027 41.9883 123.809C44.1367 124.59 46.4805 124.98 49.0195 124.98C52.1445 124.98 54.9115 124.362 57.3203 123.125C59.7943 121.823 61.8776 119.805 63.5703 117.07C65.3281 114.271 66.6302 110.625 67.4766 106.133C68.3229 101.641 68.7461 96.1719 68.7461 89.7266ZM138.918 61.6992H153.957C158.775 61.6992 162.746 60.8854 165.871 59.2578C168.996 57.5651 171.307 55.2214 172.805 52.2266C174.367 49.1667 175.148 45.6185 175.148 41.582C175.148 37.9362 174.432 34.7135 173 31.9141C171.633 29.0495 169.517 26.8359 166.652 25.2734C163.788 23.6458 160.174 22.832 155.812 22.832C152.362 22.832 149.172 23.5156 146.242 24.8828C143.312 26.25 140.969 28.1706 139.211 30.6445C137.453 33.1185 136.574 36.1133 136.574 39.6289H108.352C108.352 31.8164 110.435 25.013 114.602 19.2188C118.833 13.4245 124.497 8.89974 131.594 5.64453C138.69 2.38932 146.503 0.761719 155.031 0.761719C164.667 0.761719 173.098 2.32422 180.324 5.44922C187.551 8.50911 193.182 13.0339 197.219 19.0234C201.255 25.013 203.273 32.4349 203.273 41.2891C203.273 45.7812 202.232 50.1432 200.148 54.375C198.065 58.5417 195.07 62.3177 191.164 65.7031C187.323 69.0234 182.635 71.6927 177.102 73.7109C171.568 75.6641 165.35 76.6406 158.449 76.6406H138.918V61.6992ZM138.918 83.0859V68.5352H158.449C166.197 68.5352 173 69.4141 178.859 71.1719C184.719 72.9297 189.634 75.4688 193.605 78.7891C197.577 82.0443 200.572 85.918 202.59 90.4102C204.608 94.8372 205.617 99.7526 205.617 105.156C205.617 111.797 204.348 117.721 201.809 122.93C199.27 128.073 195.689 132.435 191.066 136.016C186.509 139.596 181.171 142.331 175.051 144.219C168.931 146.042 162.258 146.953 155.031 146.953C149.042 146.953 143.15 146.139 137.355 144.512C131.626 142.819 126.418 140.312 121.73 136.992C117.108 133.607 113.397 129.375 110.598 124.297C107.863 119.154 106.496 113.066 106.496 106.035H134.719C134.719 109.681 135.63 112.936 137.453 115.801C139.276 118.665 141.783 120.911 144.973 122.539C148.228 124.167 151.841 124.98 155.812 124.98C160.305 124.98 164.146 124.167 167.336 122.539C170.591 120.846 173.065 118.503 174.758 115.508C176.516 112.448 177.395 108.9 177.395 104.863C177.395 99.6549 176.451 95.4883 174.562 92.3633C172.674 89.1732 169.973 86.8294 166.457 85.332C162.941 83.8346 158.775 83.0859 153.957 83.0859H138.918Z" fill="#F8F8F8"/>
</svg>
