<svg width="40" height="40" viewBox="0 0 40 40" fill="none" xmlns="http://www.w3.org/2000/svg">
<g clip-path="url(#clip0_57_7465)">
<path d="M38.9504 30.8579L30.8542 25.4587C29.8268 24.779 28.4496 25.0027 27.69 25.9726L25.3317 29.0048C25.0286 29.4044 24.4777 29.5204 24.0392 29.2768L23.5906 29.0295C22.1035 28.2189 20.2531 27.2098 16.525 23.4803C12.7969 19.7509 11.7857 17.8991 10.9751 16.4147L10.7292 15.9661C10.4823 15.5278 10.596 14.9745 10.9958 14.669L14.0259 12.3114C14.9955 11.5517 15.2194 10.1749 14.5406 9.14714L9.14136 1.051C8.4456 0.00443778 7.04971 -0.309734 5.97261 0.337748L2.58709 2.37143C1.52334 2.99681 0.742912 4.00962 0.409446 5.19765C-0.809671 9.63965 0.107458 17.3059 11.4005 28.6002C20.3838 37.5828 27.0715 39.9985 31.6682 39.9985C32.7261 40.003 33.7798 39.8654 34.8011 39.5893C35.9893 39.2562 37.0023 38.4757 37.6273 37.4116L39.663 34.0281C40.3114 32.9508 39.9974 31.554 38.9504 30.8579ZM38.5144 33.3442L36.4834 36.7297C36.0346 37.4977 35.3061 38.0624 34.4503 38.3055C30.3496 39.4313 23.1854 38.4988 12.3436 27.6571C1.50186 16.8153 0.569422 9.65168 1.69527 5.55033C1.93867 4.69358 2.50406 3.96408 3.27301 3.51462L6.65852 1.48359C7.12587 1.20238 7.73172 1.33869 8.03363 1.79284L10.9666 6.19617L13.4282 9.88828C13.723 10.3341 13.6262 10.9316 13.2056 11.2614L10.1747 13.6191C9.25235 14.3243 8.98896 15.6005 9.55684 16.6133L9.79751 17.0506C10.6494 18.613 11.7086 20.5567 15.5753 24.4228C19.4421 28.2889 21.3852 29.3481 22.9469 30.2L23.3848 30.4412C24.3975 31.0091 25.6738 30.7457 26.379 29.8234L28.7367 26.7925C29.0666 26.3722 29.6639 26.2754 30.1098 26.5699L38.2053 31.9691C38.6597 32.2707 38.796 32.8769 38.5144 33.3442Z" fill="#BEAD8E"/>
<path d="M22.6656 6.67C28.921 6.67695 33.9902 11.7463 33.9972 18.0017C33.9972 18.3698 34.2956 18.6682 34.6638 18.6682C35.0319 18.6682 35.3303 18.3698 35.3303 18.0017C35.3226 11.0103 29.6569 5.34457 22.6656 5.33691C22.2974 5.33691 21.999 5.63531 21.999 6.00346C21.999 6.3716 22.2974 6.67 22.6656 6.67Z" fill="#BEAD8E"/>
<path d="M22.6656 10.6695C26.7131 10.6743 29.9931 13.9543 29.9978 18.0018C29.9978 18.3699 30.2963 18.6683 30.6644 18.6683C31.0325 18.6683 31.3309 18.3699 31.3309 18.0018C31.3254 13.2183 27.449 9.34189 22.6656 9.33643C22.2974 9.33643 21.999 9.63482 21.999 10.003C21.999 10.3711 22.2974 10.6695 22.6656 10.6695Z" fill="#BEAD8E"/>
<path d="M22.6656 14.669C24.5053 14.6712 25.9962 16.1621 25.9984 18.0019C25.9984 18.37 26.2969 18.6684 26.665 18.6684C27.033 18.6684 27.3315 18.37 27.3315 18.0019C27.3285 15.4262 25.2413 13.3388 22.6656 13.3359C22.2974 13.3359 21.999 13.6343 21.999 14.0025C21.999 14.3706 22.2974 14.669 22.6656 14.669Z" fill="#BEAD8E"/>
</g>
<defs>
<clipPath id="clip0_57_7465">
<rect width="40" height="40" fill="white"/>
</clipPath>
</defs>
</svg>
