<svg width="46" height="46" viewBox="0 0 46 46" fill="none" xmlns="http://www.w3.org/2000/svg">
<circle cx="23" cy="23" r="21" fill="#BDAC8D" stroke="white" stroke-width="4"/>
<path d="M30 19C30 19.2559 29.9023 19.5119 29.707 19.7069L21.707 27.7069C21.5125 27.9031 21.2562 28 21 28C20.7438 28 20.4881 27.9023 20.2931 27.707L16.2931 23.707C16.0978 23.5125 16 23.2562 16 23C16 22.4288 16.4672 22 17 22C17.2559 22 17.5119 22.0977 17.7069 22.293L21 25.5875L28.2937 18.2938C28.4875 18.0978 28.7437 18 29 18C29.5344 18 30 18.4281 30 19Z" fill="white"/>
</svg>
