<svg width="71" height="70" viewBox="0 0 71 70" fill="none" xmlns="http://www.w3.org/2000/svg">
<g clip-path="url(#clip0_20_172)">
<path d="M37.8548 46.0802H56.7822C57.492 46.0802 57.9651 45.6137 57.9651 44.9139V34.4172C57.9651 33.7175 57.492 33.251 56.7822 33.251H37.8548C37.145 33.251 36.6719 33.7175 36.6719 34.4172V44.9139C36.6717 45.6136 37.145 46.0802 37.8548 46.0802ZM39.0377 35.5835H55.5993V43.7476H39.0377V35.5835Z" fill="#BEAD8E"/>
<path d="M5.91485 30.918H15.3786C16.0884 30.918 16.5615 30.4515 16.5615 29.7517C16.5615 29.0519 16.0884 28.5854 15.3786 28.5854H5.91485C5.20507 28.5854 4.73193 29.0519 4.73193 29.7517C4.73193 30.4515 5.20507 30.918 5.91485 30.918Z" fill="#BEAD8E"/>
<path d="M20.1104 30.918H29.5742C30.2839 30.918 30.7571 30.4515 30.7571 29.7517C30.7571 29.0519 30.2839 28.5854 29.5742 28.5854H20.1104C19.4006 28.5854 18.9275 29.0519 18.9275 29.7517C18.9275 30.4515 19.4006 30.918 20.1104 30.918Z" fill="#BEAD8E"/>
<path d="M5.91485 35.5835H21.2933C22.0031 35.5835 22.4763 35.117 22.4763 34.4172C22.4763 33.7174 22.0031 33.251 21.2933 33.251H5.91485C5.20507 33.251 4.73193 33.7174 4.73193 34.4172C4.73193 35.117 5.20507 35.5835 5.91485 35.5835Z" fill="#BEAD8E"/>
<path d="M29.5741 33.2505H26.0252C25.3154 33.2505 24.8423 33.717 24.8423 34.4167C24.8423 35.1165 25.3154 35.583 26.0252 35.583H29.5741C30.2839 35.583 30.757 35.1165 30.757 34.4167C30.757 33.717 30.2839 33.2505 29.5741 33.2505Z" fill="#BEAD8E"/>
<path d="M69.9131 18.7885C69.0851 17.7389 68.0205 17.1557 66.7191 17.0391L63.88 16.6999V13.4235V11.0909C63.88 8.52513 61.7507 6.42578 59.1482 6.42578H4.73181C2.12933 6.42564 0 8.52499 0 11.0909V13.4236V22.7541V48.4127C0 50.5193 1.43578 52.3104 3.38988 52.8844C3.33027 55.2437 5.1409 57.292 7.57106 57.5098L62.224 63.5746C62.3422 63.5746 62.5789 63.5746 62.6971 63.5746C65.0631 63.5746 67.1924 61.8251 67.4289 59.6092L70.9778 22.1709C71.0961 21.0045 70.7412 19.7215 69.9131 18.7885ZM2.36597 14.5899H61.5142V17.6223V21.5877H2.36597V14.5899ZM4.73181 8.7583H59.1481C60.4494 8.7583 61.5141 9.80797 61.5141 11.0909V12.2572H2.36597V11.0909C2.36597 9.80797 3.43064 8.7583 4.73181 8.7583ZM2.36597 48.4125V23.9202H61.5142V48.4125C61.5142 49.6955 60.4495 50.7452 59.1482 50.7452H4.8502H4.73195C3.43064 50.7452 2.36597 49.6955 2.36597 48.4125ZM68.6118 21.7043L65.063 59.1426C64.9447 60.4255 63.7616 61.3585 62.4605 61.2419L7.92581 55.1772C6.74289 55.0606 5.91473 54.1275 5.79648 53.0778H59.1481C61.7506 53.0778 63.8799 50.9785 63.8799 48.4127V22.7539V18.9051L66.6008 19.1384C67.1923 19.1384 67.7837 19.4883 68.1386 19.9548C68.4936 20.4213 68.7302 21.1211 68.6118 21.7043Z" fill="#BEAD8E"/>
</g>
<defs>
<clipPath id="clip0_20_172">
<rect width="71" height="70" fill="white"/>
</clipPath>
</defs>
</svg>
