<svg width="70" height="70" viewBox="0 0 70 70" fill="none" xmlns="http://www.w3.org/2000/svg">
<path d="M52.6881 48.3561C52.5239 48.3561 52.3573 48.3163 52.2028 48.2325C51.7079 47.9639 51.5244 47.345 51.793 46.8501C55.982 39.131 58.1059 31.8283 58.1059 25.1449C58.1059 12.4042 47.7406 2.03902 35 2.03902C33.4555 2.03902 31.9118 2.19215 30.4116 2.49443C29.8602 2.60586 29.3221 2.2482 29.2109 1.69627C29.0998 1.14434 29.4572 0.606621 30.0091 0.495469C31.6412 0.166797 33.3204 0 34.9999 0C48.8648 0 60.1448 11.28 60.1448 25.1449C60.1448 32.1717 57.9377 39.8016 53.585 47.8226C53.4004 48.163 53.0499 48.3561 52.6881 48.3561Z" fill="#BEAD8E"/>
<path d="M34.9999 69.9999C33.9182 69.9999 32.9058 69.5736 32.1492 68.7997C29.241 65.8247 23.6402 59.6753 18.8031 51.9169C12.8657 42.3939 9.85498 33.3865 9.85498 25.1448C9.85498 15.0163 15.8829 5.92215 25.212 1.97631C25.7309 1.75701 26.3288 1.99941 26.5482 2.51813C26.7676 3.0367 26.525 3.63498 26.0065 3.85428C17.4334 7.48033 11.894 15.8373 11.894 25.1448C11.894 43.7178 28.5135 62.1633 33.6073 67.3744C33.9769 67.7527 34.4716 67.9609 34.9999 67.9609C35.5282 67.9609 36.0228 67.7527 36.3925 67.3744C39.2227 64.4791 44.6755 58.4953 49.3965 50.9501C49.6954 50.4726 50.3244 50.328 50.8017 50.6266C51.279 50.9253 51.4238 51.5544 51.1252 52.0317C46.3026 59.739 40.7381 65.8457 37.8506 68.7997C37.094 69.5736 36.0816 69.9999 34.9999 69.9999Z" fill="#BEAD8E"/>
<path d="M35 36.6312C32.4001 36.6312 29.9395 35.7948 27.8845 34.2124C27.4383 33.8689 27.3551 33.2288 27.6987 32.7826C28.0422 32.3366 28.6822 32.2531 29.1283 32.5968C30.8238 33.9022 32.8542 34.5922 35.0001 34.5922C40.3126 34.5922 44.6344 30.2702 44.6344 24.9579C44.6344 19.6455 40.3125 15.3234 35 15.3234C29.6875 15.3234 25.3657 19.6454 25.3657 24.9577C25.3657 26.4421 25.6939 27.8653 26.3414 29.1878C26.589 29.6935 26.3797 30.3043 25.874 30.5519C25.3677 30.7992 24.7574 30.59 24.51 30.0844C23.7248 28.4804 23.3267 26.7556 23.3267 24.9577C23.3267 18.521 28.5633 13.2844 35 13.2844C41.4367 13.2844 46.6733 18.521 46.6733 24.9577C46.6733 31.3945 41.4367 36.6312 35 36.6312Z" fill="#BEAD8E"/>
</svg>
