<svg width="16" height="17" viewBox="0 0 16 17" fill="none" xmlns="http://www.w3.org/2000/svg">
<g clip-path="url(#clip0_25_3334)">
<path d="M3.4644 12.5379C3.4644 12.1528 3.7204 12.0891 3.85543 11.716C3.89952 11.5942 3.83649 11.4596 3.71465 11.4155C3.59271 11.3715 3.45827 11.4345 3.41415 11.5563C3.32015 11.8161 2.99512 11.9769 2.99512 12.5379C2.99512 13.2088 3.44921 13.2738 3.44921 13.7425C3.44921 14.2214 2.99512 14.2656 2.99512 14.9472C2.99512 15.0768 3.10015 15.1819 3.22974 15.1819C3.35934 15.1819 3.46437 15.0768 3.46437 14.9472C3.46437 14.4683 3.91846 14.4242 3.91846 13.7425C3.91849 13.0714 3.4644 13.0068 3.4644 12.5379Z" fill="#BEAD8E"/>
<path d="M8.33549 12.538C8.33549 12.1529 8.59124 12.0899 8.72652 11.7161C8.77065 11.5943 8.70762 11.4598 8.58577 11.4157C8.46412 11.3716 8.32943 11.4345 8.28531 11.5564C8.19115 11.8164 7.86621 11.9767 7.86621 12.538C7.86621 13.2089 8.3203 13.2739 8.3203 13.7426C8.3203 14.2215 7.86621 14.2657 7.86621 14.9474C7.86621 15.0769 7.97124 15.182 8.10084 15.182C8.23043 15.182 8.33546 15.0769 8.33546 14.9474C8.33546 14.4684 8.78955 14.4243 8.78955 13.7426C8.78962 13.0715 8.33549 13.007 8.33549 12.538Z" fill="#BEAD8E"/>
<path d="M5.89995 12.538C5.89995 12.1529 6.15566 12.0899 6.29095 11.7161C6.33507 11.5943 6.27204 11.4598 6.1502 11.4157C6.02854 11.3716 5.89385 11.4345 5.84973 11.5564C5.75551 11.8166 5.43066 11.9767 5.43066 12.538C5.43066 13.2089 5.88476 13.2739 5.88476 13.7426C5.88476 14.2215 5.43066 14.2657 5.43066 14.9474C5.43066 15.0769 5.5357 15.182 5.66529 15.182C5.79488 15.182 5.89991 15.0769 5.89991 14.9474C5.89991 14.4684 6.35401 14.4243 6.35401 13.7426C6.35404 13.0715 5.89995 13.007 5.89995 12.538Z" fill="#BEAD8E"/>
<path d="M10.771 12.538C10.771 12.1529 11.0268 12.0899 11.162 11.7161C11.2062 11.5943 11.1431 11.4598 11.0213 11.4157C10.8997 11.3716 10.7649 11.4345 10.7208 11.5564C10.6266 11.8166 10.3018 11.9767 10.3018 12.538C10.3018 13.2089 10.7559 13.2739 10.7559 13.7426C10.7559 14.2215 10.3018 14.2657 10.3018 14.9474C10.3018 15.0769 10.4068 15.182 10.5364 15.182C10.666 15.182 10.771 15.0769 10.771 14.9474C10.771 14.4684 11.2251 14.4243 11.2251 13.7426C11.2251 13.0715 10.771 13.007 10.771 12.538Z" fill="#BEAD8E"/>
<path d="M13.2066 12.538C13.2066 12.1529 13.4623 12.0899 13.5976 11.7161C13.6417 11.5943 13.5787 11.4598 13.4568 11.4157C13.3352 11.3716 13.2005 11.4345 13.1564 11.5564C13.0621 11.8166 12.7373 11.9767 12.7373 12.538C12.7373 13.2089 13.1914 13.2739 13.1914 13.7426C13.1914 14.2215 12.7373 14.2657 12.7373 14.9474C12.7373 15.0769 12.8423 15.182 12.9719 15.182C13.1015 15.182 13.2066 15.0769 13.2066 14.9474C13.2066 14.4684 13.6606 14.4243 13.6606 13.7426C13.6606 13.0715 13.2066 13.007 13.2066 12.538Z" fill="#BEAD8E"/>
<path d="M1.32849 3.7052L1.31018 3.78864C1.2824 3.9152 1.36252 4.04033 1.48909 4.06808C1.61587 4.09583 1.74081 4.01558 1.76856 3.88917L1.80893 3.7052H2.22393V4.1202L2.03993 4.16058C1.91337 4.18836 1.83324 4.31348 1.86106 4.44005C1.88884 4.56661 2.01399 4.64667 2.14049 4.61892L2.22393 4.60061V4.73061C2.22393 4.8602 2.32896 4.96523 2.45856 4.96523C2.58815 4.96523 2.69318 4.86017 2.69318 4.73061V4.60064L2.77659 4.61895C2.90284 4.64664 3.02821 4.56695 3.05602 4.44008C3.08384 4.31351 3.00371 4.18839 2.87715 4.16061L2.69318 4.12023V3.70523H3.10818L3.14856 3.88923C3.17634 4.01592 3.30156 4.09583 3.42799 4.06811C3.55456 4.04033 3.63468 3.9152 3.60687 3.78864L3.58856 3.70523H3.71856C3.84815 3.70523 3.95318 3.60017 3.95318 3.47061C3.95318 3.34101 3.84815 3.23598 3.71856 3.23598H3.58856L3.60687 3.15258C3.63468 3.02601 3.55456 2.90089 3.42799 2.87311C3.30152 2.84542 3.17631 2.92545 3.14856 3.05198L3.10818 3.23598H2.69318V2.82098L2.87715 2.78061C3.00371 2.75283 3.08384 2.62773 3.05606 2.50114C3.02827 2.37458 2.90312 2.29458 2.77659 2.32226L2.69318 2.34058V2.21058C2.69318 2.08098 2.58815 1.97595 2.45856 1.97595C2.32896 1.97595 2.22393 2.08101 2.22393 2.21058V2.34058L2.14049 2.32226C2.01374 2.29461 1.88881 2.37461 1.86102 2.50114C1.83324 2.6277 1.91337 2.75283 2.03993 2.78061L2.22393 2.82098V3.23598H1.80893L1.76856 3.05201C1.74074 2.92545 1.6159 2.84542 1.48909 2.87311C1.36252 2.90089 1.2824 3.02598 1.31018 3.15255L1.32849 3.23598H1.19849C1.0689 3.23598 0.963867 3.34105 0.963867 3.47061C0.963867 3.6002 1.0689 3.70523 1.19849 3.70523H1.32849V3.7052Z" fill="#BEAD8E"/>
<path d="M14.1832 5.30012C14.1832 4.8059 13.7812 4.40381 13.2869 4.40381C12.7927 4.40381 12.3906 4.8059 12.3906 5.30012C12.3906 5.79434 12.7927 6.19643 13.2869 6.19643C13.7812 6.19643 14.1832 5.79434 14.1832 5.30012ZM12.8599 5.30012C12.8599 5.06465 13.0515 4.87306 13.2869 4.87306C13.5224 4.87306 13.714 5.06465 13.714 5.30012C13.714 5.53559 13.5224 5.72718 13.2869 5.72718C13.0515 5.72718 12.8599 5.53559 12.8599 5.30012Z" fill="#BEAD8E"/>
<path d="M11.8727 5.30012C11.8727 4.8059 11.4706 4.40381 10.9764 4.40381C10.4821 4.40381 10.0801 4.8059 10.0801 5.30012C10.0801 5.79434 10.4821 6.19643 10.9764 6.19643C11.4706 6.19643 11.8727 5.79434 11.8727 5.30012ZM10.5493 5.30012C10.5493 5.06465 10.7409 4.87306 10.9764 4.87306C11.2119 4.87306 11.4035 5.06465 11.4035 5.30012C11.4035 5.53559 11.2119 5.72718 10.9764 5.72718C10.7409 5.72718 10.5493 5.53559 10.5493 5.30012Z" fill="#BEAD8E"/>
<path d="M2.45878 5.93587C3.81456 5.93587 4.91753 4.83287 4.91753 3.47709C4.91753 2.12131 3.81453 1.01831 2.45878 1.01831C1.10303 1.01831 0 2.12131 0 3.47709C0 4.83287 1.10303 5.93587 2.45878 5.93587ZM2.45878 1.48756C3.55578 1.48756 4.44828 2.38006 4.44828 3.47709C4.44828 4.57412 3.55578 5.46662 2.45878 5.46662C1.36175 5.46662 0.46925 4.57412 0.46925 3.47709C0.46925 2.38006 1.36175 1.48756 2.45878 1.48756Z" fill="#BEAD8E"/>
<path d="M14.9414 2.64294H5.70881C5.57922 2.64294 5.47418 2.74801 5.47418 2.87757C5.47418 3.00713 5.57922 3.11219 5.70881 3.11219H14.9414C15.2663 3.11219 15.5307 3.37654 15.5307 3.70148V9.40713C15.5307 9.73204 15.2663 9.99641 14.9414 9.99641H14.183V7.93757C14.183 7.49388 13.8221 7.13291 13.3784 7.13291H3.27681C2.83312 7.13291 2.47218 7.49388 2.47218 7.93757V9.99641H1.71381C1.38887 9.99641 1.12452 9.73207 1.12452 9.40713V6.34823C1.12452 6.21863 1.01949 6.1136 0.889899 6.1136C0.760305 6.1136 0.655273 6.21866 0.655273 6.34823V9.40713C0.655273 9.99079 1.13012 10.4657 1.71381 10.4657H14.9414C15.5251 10.4657 15.9999 9.99079 15.9999 9.40713V3.70148C15.9999 3.11779 15.5251 2.64294 14.9414 2.64294ZM2.94143 8.54754H13.7138V9.05104H2.94143V8.54754ZM3.27681 7.60216H13.3784C13.5633 7.60216 13.7138 7.75263 13.7138 7.93757V8.07829H2.94143V7.93757C2.94143 7.75263 3.09187 7.60216 3.27681 7.60216ZM2.94143 9.52029H13.7138V9.99641H2.94143V9.52029Z" fill="#BEAD8E"/>
</g>
<defs>
<clipPath id="clip0_25_3334">
<rect width="16" height="16" fill="white" transform="translate(0 0.100098)"/>
</clipPath>
</defs>
</svg>
