<svg width="16" height="17" viewBox="0 0 16 17" fill="none" xmlns="http://www.w3.org/2000/svg">
<g id="svg-gobbler - 2022-03-03T175828.668 1" clip-path="url(#clip0_25_3392)">
<g id="Group">
<g id="Group_2">
<g id="Group_3">
<path id="Vector" d="M8 3.6626C5.55316 3.6626 3.5625 5.65325 3.5625 8.1001C3.5625 10.5469 5.55316 12.5376 8 12.5376C10.4468 12.5376 12.4375 10.5469 12.4375 8.1001C12.4375 5.65325 10.4468 3.6626 8 3.6626ZM8 11.9126C5.89778 11.9126 4.1875 10.2023 4.1875 8.1001C4.1875 5.99788 5.89778 4.2876 8 4.2876C10.1022 4.2876 11.8125 5.99788 11.8125 8.1001C11.8125 10.2023 10.1022 11.9126 8 11.9126Z" fill="#BEAD8E"/>
</g>
</g>
<g id="Group_4">
<g id="Group_5">
<path id="Vector_2" d="M15.8341 0.136598C15.732 0.0824102 15.6083 0.0889414 15.5125 0.153629C13.9784 1.19022 13.0625 2.91447 13.0625 4.766V8.82075C13.0625 9.25566 13.2319 9.66454 13.5394 9.97207L14.125 10.5577V15.1626C14.125 15.6795 14.5456 16.1001 15.0625 16.1001C15.5794 16.1001 16 15.6795 16 15.1626V0.412598C16 0.297004 15.9362 0.190848 15.8341 0.136598ZM15.375 15.1626C15.375 15.3349 15.2348 15.4751 15.0625 15.4751C14.8902 15.4751 14.75 15.3349 14.75 15.1626V10.4282C14.75 10.3453 14.7171 10.2659 14.6585 10.2073L13.9813 9.5301C13.7918 9.34063 13.6875 9.08872 13.6875 8.82075V4.766C13.6875 3.32913 14.3088 1.97869 15.375 1.04688V15.1626Z" fill="#BEAD8E"/>
</g>
</g>
<g id="Group_6">
<g id="Group_7">
<path id="Vector_3" d="M7.28268 5.62176C7.21493 5.46304 7.03124 5.38932 6.87255 5.45704C5.81214 5.90972 5.12695 6.94719 5.12695 8.10009C5.12695 8.27266 5.26686 8.41259 5.43945 8.41259C5.61205 8.41259 5.75196 8.27266 5.75196 8.10009C5.75196 7.19794 6.28814 6.3861 7.11796 6.03188C7.27668 5.96413 7.35043 5.78051 7.28268 5.62176Z" fill="#BEAD8E"/>
</g>
</g>
<g id="Group_8">
<g id="Group_9">
<path id="Vector_4" d="M8.00002 5.22742L7.98424 5.22745C7.81165 5.2286 7.67268 5.36945 7.67384 5.54204C7.67499 5.71392 7.81468 5.85245 7.9863 5.85245C7.98699 5.85245 7.98774 5.85245 7.98843 5.85245L8.00002 5.85242C8.17262 5.85242 8.31252 5.71251 8.31252 5.53992C8.31252 5.36732 8.17262 5.22742 8.00002 5.22742Z" fill="#BEAD8E"/>
</g>
</g>
<g id="Group_10">
<g id="Group_11">
<path id="Vector_5" d="M12.332 3.99007C11.7798 3.40832 11.129 2.95057 10.3976 2.62957C9.64026 2.29719 8.83357 2.12866 8.00001 2.12866C7.04751 2.12866 6.13701 2.34635 5.29382 2.77572C5.14004 2.85404 5.07882 3.04219 5.15713 3.19601C5.23547 3.34976 5.42363 3.41094 5.57744 3.33266C6.33194 2.94847 7.14701 2.75366 8.00001 2.75366C9.48113 2.75366 10.8586 3.34554 11.8786 4.42032C11.9401 4.48507 12.0226 4.51769 12.1054 4.51769C12.1826 4.51769 12.26 4.48922 12.3204 4.43185C12.4456 4.31304 12.4508 4.11526 12.332 3.99007Z" fill="#BEAD8E"/>
</g>
</g>
<g id="Group_12">
<g id="Group_13">
<path id="Vector_6" d="M12.6357 11.3619C12.5003 11.2549 12.3038 11.2779 12.1968 11.4132C11.1751 12.7054 9.64561 13.4465 8.00039 13.4465C6.9707 13.4465 5.9711 13.1533 5.10967 12.5984C4.9646 12.505 4.77117 12.5469 4.67773 12.6919C4.58429 12.8371 4.62617 13.0304 4.77126 13.1239C5.73382 13.7438 6.85045 14.0715 8.00039 14.0715C9.83789 14.0715 11.5461 13.2439 12.687 11.8008C12.7941 11.6655 12.7711 11.469 12.6357 11.3619Z" fill="#BEAD8E"/>
</g>
</g>
<g id="Group_14">
<g id="Group_15">
<path id="Vector_7" d="M4.24868 11.9102L4.24409 11.9049C4.24243 11.9029 4.24078 11.9009 4.23906 11.8989C4.1279 11.7668 3.93078 11.7499 3.79875 11.861C3.66672 11.9722 3.64978 12.1693 3.76097 12.3014L3.764 12.305L3.76416 12.3049C3.76747 12.309 3.7709 12.3132 3.77447 12.3174C3.83628 12.3894 3.92372 12.4263 4.01172 12.4263C4.08378 12.4263 4.15618 12.4015 4.21512 12.3509C4.34606 12.2385 4.36109 12.0412 4.24868 11.9102Z" fill="#BEAD8E"/>
</g>
</g>
<g id="Group_16">
<g id="Group_17">
<path id="Vector_8" d="M3.875 0.100098C3.70241 0.100098 3.5625 0.240004 3.5625 0.412598V3.7876H2.99975C2.99978 3.78585 3 3.78416 3 3.78238V0.412598C3 0.240004 2.86009 0.100098 2.6875 0.100098C2.51491 0.100098 2.375 0.240004 2.375 0.412598V3.78238C2.375 3.78413 2.37525 3.78585 2.37525 3.7876H1.81225C1.81228 3.78585 1.8125 3.78416 1.8125 3.78238V0.412598C1.8125 0.240004 1.67259 0.100098 1.5 0.100098C1.32741 0.100098 1.1875 0.240004 1.1875 0.412598V3.78238C1.1875 3.78413 1.18775 3.78585 1.18775 3.7876H0.625V0.412598C0.625 0.240004 0.485094 0.100098 0.3125 0.100098C0.139906 0.100098 0 0.240004 0 0.412598V4.2251C0 4.99166 0.465125 5.6835 1.15625 5.98257V15.1626C1.15625 15.6795 1.57681 16.1001 2.09375 16.1001C2.61069 16.1001 3.03125 15.6795 3.03125 15.1626V5.98257C3.72237 5.6835 4.1875 4.99166 4.1875 4.2251V0.412598C4.1875 0.240004 4.04759 0.100098 3.875 0.100098ZM2.632 5.46322C2.49831 5.50185 2.40625 5.62425 2.40625 5.76344V15.1626C2.40625 15.3349 2.26606 15.4751 2.09375 15.4751C1.92144 15.4751 1.78125 15.3349 1.78125 15.1626V5.76344C1.78125 5.62425 1.68922 5.50185 1.5555 5.46322C1.06853 5.3225 0.712344 4.9045 0.639125 4.4126H3.54834C3.47516 4.9045 3.11897 5.3225 2.632 5.46322Z" fill="#BEAD8E"/>
</g>
</g>
</g>
</g>
<defs>
<clipPath id="clip0_25_3392">
<rect width="16" height="16" fill="white" transform="translate(0 0.100098)"/>
</clipPath>
</defs>
</svg>
