<svg width="16" height="16" viewBox="0 0 16 16" fill="none" xmlns="http://www.w3.org/2000/svg">
<g id="svg-gobbler - 2022-03-03T175907.963 1" clip-path="url(#clip0_22_2316)">
<g id="Group">
<g id="Group_2">
<g id="Group_3">
<path id="Vector" d="M4.65462 3.42732C5.21796 3.67992 5.44459 4.2771 5.51587 4.52214C5.55046 4.64104 5.6569 4.72095 5.78068 4.72095C5.90446 4.72095 6.01087 4.64104 6.04549 4.5221C6.11677 4.27707 6.34337 3.67989 6.90677 3.42729C7.00602 3.38279 7.07018 3.28389 7.07018 3.17535C7.07018 3.06682 7.00605 2.96792 6.90677 2.92339C6.3434 2.67079 6.1168 2.0736 6.04549 1.82857C6.0109 1.70967 5.90446 1.62976 5.78068 1.62976C5.6569 1.62976 5.55046 1.70967 5.51587 1.82857C5.44459 2.0736 5.21799 2.67079 4.65465 2.92339C4.55537 2.96789 4.49121 3.06679 4.49121 3.17535C4.49121 3.28392 4.55537 3.38282 4.65462 3.42732ZM5.78068 2.42135C5.91071 2.67429 6.11084 2.95976 6.41118 3.17535C6.11084 3.39095 5.91074 3.67642 5.78068 3.92935C5.65065 3.67642 5.45055 3.39095 5.15018 3.17535C5.45052 2.95976 5.65065 2.67429 5.78068 2.42135Z" fill="#BEAD8E"/>
<path id="Vector_2" d="M4.22756 4.75357C4.33268 4.70644 4.40059 4.60179 4.40059 4.48694C4.40059 4.3721 4.33265 4.26741 4.22756 4.22032C3.41478 3.85591 3.08978 3.001 2.98778 2.65032C2.95118 2.52447 2.83859 2.43994 2.70762 2.43994C2.57665 2.43994 2.46406 2.5245 2.42746 2.65032C2.32546 3.00097 2.00046 3.85588 1.18768 4.22032C1.08255 4.26744 1.01465 4.3721 1.01465 4.48694C1.01465 4.60179 1.08259 4.70647 1.18768 4.75357C2.00046 5.118 2.32546 5.97291 2.42749 6.32357C2.46409 6.44938 2.57668 6.53391 2.70765 6.53391C2.83859 6.53391 2.95118 6.44938 2.98781 6.32353C3.08978 5.97291 3.41481 5.118 4.22756 4.75357ZM2.70762 5.73519C2.52653 5.33247 2.20912 4.82635 1.67659 4.48691C2.20912 4.1475 2.52656 3.64138 2.70765 3.23866C2.88874 3.64138 3.20618 4.1475 3.73868 4.48691C3.20615 4.82635 2.88871 5.33247 2.70762 5.73519Z" fill="#BEAD8E"/>
<path id="Vector_3" d="M14.983 15.4566L14.9341 14.7707C14.9339 14.7685 14.9337 14.7663 14.9335 14.7641C14.824 13.6689 14.6191 12.5615 14.6097 12.5108C14.4622 11.4763 13.82 11.0019 13.3063 10.7861C13.1927 10.7383 13.0806 10.7011 12.9743 10.6721V4.39122C12.9743 4.262 12.8695 4.15722 12.7403 4.15722C12.6111 4.15722 12.5063 4.26197 12.5063 4.39122V10.5844C12.3653 10.5696 12.2679 10.5699 12.2409 10.5703C12.2138 10.5699 12.1164 10.5697 11.9754 10.5845V2.60206H12.5063V3.28575C12.5063 3.41497 12.611 3.51975 12.7403 3.51975C12.8695 3.51975 12.9743 3.415 12.9743 3.28575V0.733469C12.9743 0.329031 12.6453 0 12.2408 0C11.8364 0 11.5074 0.329031 11.5074 0.733469V10.6721C11.401 10.7011 11.2889 10.7383 11.1753 10.7861C11.0543 10.8369 10.9262 10.9024 10.799 10.986L10.8827 9.41859C11.0839 9.3645 11.2326 9.18103 11.2326 8.963V8.31763C11.2326 8.05722 11.0208 7.84538 10.7604 7.84538H10.6748C10.7132 7.74447 10.7337 7.63613 10.7337 7.52481C10.7337 7.02806 10.3296 6.62397 9.83288 6.62397C9.72254 6.62397 9.61551 6.6435 9.51513 6.68141C9.31013 6.38597 8.96795 6.20003 8.59935 6.20003C8.47823 6.20003 8.35829 6.22006 8.24457 6.25838C8.09273 5.62372 7.52066 5.15053 6.84013 5.15053C6.1596 5.15053 5.58751 5.62369 5.43566 6.25838C5.32195 6.22006 5.20201 6.20003 5.08088 6.20003C4.46729 6.20003 3.96807 6.69922 3.96807 7.31281C3.96807 7.50128 4.01507 7.68388 4.09948 7.84538H3.94141C3.68101 7.84538 3.46916 8.05722 3.46916 8.31759V8.963C3.46916 9.18103 3.61788 9.3645 3.81907 9.41859L3.92538 11.4106L3.23388 12.1021C3.10638 12.2296 3.03613 12.3991 3.03613 12.5795C3.03613 12.7598 3.10635 12.9293 3.23388 13.0568C3.36551 13.1884 3.53838 13.2542 3.71126 13.2542C3.81732 13.2542 3.92329 13.2292 4.01982 13.1797L4.11035 14.8761C4.14401 15.5063 4.66473 16 5.29582 16H9.40604C9.53335 16 9.65604 15.9796 9.77129 15.9423C9.84285 15.9794 9.92273 16 10.0046 16H14.4771C14.6174 16 14.7527 15.9411 14.8484 15.8384C14.9439 15.7357 14.993 15.5966 14.983 15.4566ZM11.9754 0.733469C11.9754 0.587094 12.0944 0.468 12.2408 0.468C12.3872 0.468 12.5063 0.587094 12.5063 0.733469V2.13409H11.9754V0.733469ZM12.2343 11.0383C12.2384 11.0384 12.2431 11.0384 12.2472 11.0383C12.3116 11.0368 13.74 11.0174 14.0934 12.3174H10.728L10.7651 11.6228C11.3178 11.0262 12.1831 11.037 12.2343 11.0383ZM5.08091 6.66803C5.22929 6.66803 5.36882 6.71716 5.48441 6.81009C5.55554 6.86728 5.65335 6.87788 5.73504 6.83738C5.81676 6.79684 5.86748 6.7125 5.86495 6.62131L5.8646 6.60988C5.86441 6.60475 5.8642 6.59966 5.8642 6.5945C5.8642 6.05638 6.30201 5.61856 6.84016 5.61856C7.37832 5.61856 7.8161 6.05638 7.8161 6.5945C7.8161 6.59966 7.81588 6.60478 7.8157 6.60988L7.81535 6.62131C7.81285 6.7125 7.86354 6.79681 7.94526 6.83738C8.02698 6.87791 8.12482 6.86728 8.19588 6.81009C8.31148 6.71716 8.45098 6.66803 8.59938 6.66803C8.86538 6.66803 9.10766 6.83512 9.2022 7.08384C9.22866 7.15344 9.28666 7.20628 9.35841 7.22619C9.43016 7.24609 9.50707 7.23063 9.56563 7.18456C9.64257 7.124 9.73501 7.092 9.83291 7.092C10.0716 7.092 10.2658 7.28619 10.2658 7.52488C10.2658 7.64806 10.2136 7.76391 10.1238 7.84544H4.69551C4.53629 7.724 4.4361 7.52134 4.4361 7.31287C4.43607 6.95728 4.72535 6.66803 5.08091 6.66803ZM3.9372 8.31759C3.9372 8.31525 3.9391 8.31334 3.94145 8.31334H10.7604C10.7628 8.31334 10.7647 8.31525 10.7647 8.31759V8.96297C10.7647 8.96531 10.7628 8.96722 10.7604 8.96722H8.81176C8.50116 8.96722 8.22616 9.15203 8.11116 9.43803C7.9857 9.75019 7.68729 9.95184 7.35091 9.95184C7.33238 9.95184 7.31407 9.95088 7.29582 9.94963L7.7342 9.51125C7.8617 9.38375 7.93194 9.21422 7.93194 9.03388C7.93194 8.85353 7.86173 8.684 7.7342 8.5565C7.47098 8.29328 7.0427 8.29328 6.77948 8.5565L6.26838 9.06759C6.1562 9.00319 6.0267 8.96719 5.8901 8.96719H3.94145C3.9391 8.96719 3.9372 8.96528 3.9372 8.96294V8.31759ZM5.90007 9.43594L4.37032 10.9657L4.28863 9.43522H5.89007C5.89351 9.43522 5.89673 9.43584 5.90007 9.43594ZM9.40604 15.532H5.29582C4.91351 15.532 4.59807 15.2329 4.5777 14.8512L4.46707 12.7784L5.47426 11.7712C5.56563 11.6799 5.56563 11.5317 5.47426 11.4403C5.38288 11.349 5.23473 11.349 5.14335 11.4403L3.85776 12.7259C3.77701 12.8067 3.6456 12.8067 3.56485 12.7259C3.4841 12.6452 3.4841 12.5138 3.56485 12.433L7.11038 8.8875C7.19113 8.80672 7.32251 8.80672 7.40329 8.8875C7.48404 8.96825 7.48404 9.09966 7.40329 9.18041L5.93388 10.6498C5.84251 10.7412 5.84251 10.8893 5.93388 10.9807C6.02526 11.0721 6.17341 11.0721 6.26479 10.9807L6.90482 10.3407C7.04476 10.3921 7.19516 10.4199 7.35091 10.4199C7.87938 10.4199 8.34826 10.103 8.54538 9.61263C8.5887 9.50488 8.69326 9.43525 8.81173 9.43525H10.4132L10.1242 14.8512C10.1038 15.233 9.78835 15.532 9.40604 15.532ZM14.5058 15.5195C14.5005 15.5252 14.4912 15.532 14.4771 15.532H13.746C13.674 14.519 13.4801 13.7664 13.4713 13.7327C13.4387 13.6077 13.3109 13.5328 13.1858 13.5654C13.0608 13.598 12.9858 13.7258 13.0184 13.8508C13.0205 13.8586 13.2054 14.5764 13.2767 15.532H12.4748V13.7918C12.4748 13.6626 12.3701 13.5578 12.2408 13.5578C12.1116 13.5578 12.0068 13.6625 12.0068 13.7918V15.532H11.2049C11.276 14.5813 11.4602 13.8626 11.4632 13.8509C11.4958 13.7258 11.4209 13.598 11.2959 13.5654C11.1709 13.5327 11.043 13.6077 11.0104 13.7327C11.0016 13.7665 10.8077 14.5191 10.7356 15.532H10.3503C10.4902 15.3486 10.5783 15.1229 10.5914 14.8762L10.703 12.7855H14.1834C14.2471 13.1499 14.3849 13.9822 14.4675 14.8074L14.5163 15.4899C14.5173 15.504 14.5111 15.5138 14.5058 15.5195Z" fill="#BEAD8E"/>
</g>
</g>
</g>
</g>
<defs>
<clipPath id="clip0_22_2316">
<rect width="16" height="16" fill="white"/>
</clipPath>
</defs>
</svg>
