<svg width="16" height="17" viewBox="0 0 16 17" fill="none" xmlns="http://www.w3.org/2000/svg">
<g clip-path="url(#clip0_25_3420)">
<path d="M4.65462 3.97737C5.21796 4.22997 5.44459 4.82715 5.51587 5.07218C5.55046 5.19109 5.6569 5.271 5.78068 5.271C5.90446 5.271 6.01087 5.19109 6.04549 5.07215C6.11677 4.82712 6.34337 4.22993 6.90677 3.97734C7.00602 3.93284 7.07018 3.83393 7.07018 3.7254C7.07018 3.61687 7.00605 3.51797 6.90677 3.47343C6.3434 3.22084 6.1168 2.62365 6.04549 2.37862C6.0109 2.25972 5.90446 2.17981 5.78068 2.17981C5.6569 2.17981 5.55046 2.25972 5.51587 2.37862C5.44459 2.62365 5.21799 3.22084 4.65465 3.47343C4.55537 3.51793 4.49121 3.61684 4.49121 3.7254C4.49121 3.83397 4.55537 3.93287 4.65462 3.97737ZM5.78068 2.9714C5.91071 3.22434 6.11084 3.50981 6.41118 3.7254C6.11084 3.941 5.91074 4.22647 5.78068 4.4794C5.65065 4.22647 5.45055 3.941 5.15018 3.7254C5.45052 3.50981 5.65065 3.22434 5.78068 2.9714Z" fill="#BEAD8E"/>
<path d="M4.22756 5.30362C4.33268 5.25649 4.40059 5.15183 4.40059 5.03699C4.40059 4.92215 4.33265 4.81746 4.22756 4.77037C3.41478 4.40596 3.08978 3.55105 2.98778 3.20037C2.95118 3.07452 2.83859 2.98999 2.70762 2.98999C2.57665 2.98999 2.46406 3.07455 2.42746 3.20037C2.32546 3.55102 2.00046 4.40593 1.18768 4.77037C1.08255 4.81749 1.01465 4.92215 1.01465 5.03699C1.01465 5.15183 1.08259 5.25652 1.18768 5.30362C2.00046 5.66805 2.32546 6.52296 2.42749 6.87362C2.46409 6.99943 2.57668 7.08396 2.70765 7.08396C2.83859 7.08396 2.95118 6.99943 2.98781 6.87358C3.08978 6.52296 3.41481 5.66805 4.22756 5.30362ZM2.70762 6.28524C2.52653 5.88252 2.20912 5.3764 1.67659 5.03696C2.20912 4.69755 2.52656 4.19143 2.70765 3.78871C2.88874 4.19143 3.20618 4.69755 3.73868 5.03696C3.20615 5.3764 2.88871 5.88252 2.70762 6.28524Z" fill="#BEAD8E"/>
<path d="M14.983 16.0066L14.9341 15.3207C14.9339 15.3185 14.9337 15.3163 14.9335 15.3141C14.824 14.219 14.6191 13.1116 14.6097 13.0608C14.4622 12.0264 13.82 11.5519 13.3063 11.3361C13.1927 11.2884 13.0806 11.2511 12.9743 11.2221V4.94127C12.9743 4.81205 12.8695 4.70727 12.7403 4.70727C12.6111 4.70727 12.5063 4.81202 12.5063 4.94127V11.1345C12.3653 11.1197 12.2679 11.1199 12.2409 11.1204C12.2138 11.12 12.1164 11.1197 11.9754 11.1345V3.15211H12.5063V3.8358C12.5063 3.96502 12.611 4.0698 12.7403 4.0698C12.8695 4.0698 12.9743 3.96505 12.9743 3.8358V1.28352C12.9743 0.87908 12.6453 0.550049 12.2408 0.550049C11.8364 0.550049 11.5074 0.87908 11.5074 1.28352V11.2222C11.401 11.2512 11.2889 11.2884 11.1753 11.3361C11.0543 11.387 10.9262 11.4525 10.799 11.536L10.8827 9.96864C11.0839 9.91455 11.2326 9.73108 11.2326 9.51305V8.86767C11.2326 8.60727 11.0208 8.39542 10.7604 8.39542H10.6748C10.7132 8.29452 10.7337 8.18617 10.7337 8.07486C10.7337 7.57811 10.3296 7.17402 9.83288 7.17402C9.72254 7.17402 9.61551 7.19355 9.51513 7.23145C9.31013 6.93602 8.96795 6.75008 8.59935 6.75008C8.47823 6.75008 8.35829 6.77011 8.24457 6.80842C8.09273 6.17377 7.52066 5.70058 6.84013 5.70058C6.1596 5.70058 5.58751 6.17374 5.43566 6.80842C5.32195 6.77011 5.20201 6.75008 5.08088 6.75008C4.46729 6.75008 3.96807 7.24927 3.96807 7.86286C3.96807 8.05133 4.01507 8.23392 4.09948 8.39542H3.94141C3.68101 8.39542 3.46916 8.60727 3.46916 8.86764V9.51305C3.46916 9.73108 3.61788 9.91455 3.81907 9.96864L3.92538 11.9606L3.23388 12.6521C3.10638 12.7796 3.03613 12.9492 3.03613 13.1295C3.03613 13.3099 3.10635 13.4794 3.23388 13.6069C3.36551 13.7385 3.53838 13.8043 3.71126 13.8043C3.81732 13.8043 3.92329 13.7793 4.01982 13.7297L4.11035 15.4261C4.14401 16.0564 4.66473 16.55 5.29582 16.55H9.40604C9.53335 16.55 9.65604 16.5296 9.77129 16.4924C9.84285 16.5295 9.92273 16.55 10.0046 16.55H14.4771C14.6174 16.55 14.7527 16.4911 14.8484 16.3885C14.9439 16.2858 14.993 16.1466 14.983 16.0066ZM11.9754 1.28352C11.9754 1.13714 12.0944 1.01805 12.2408 1.01805C12.3872 1.01805 12.5063 1.13714 12.5063 1.28352V2.68414H11.9754V1.28352ZM12.2343 11.5883C12.2384 11.5885 12.2431 11.5884 12.2472 11.5883C12.3116 11.5869 13.74 11.5675 14.0934 12.8675H10.728L10.7651 12.1728C11.3178 11.5763 12.1831 11.5871 12.2343 11.5883ZM5.08091 7.21808C5.22929 7.21808 5.36882 7.26721 5.48441 7.36014C5.55554 7.41733 5.65335 7.42792 5.73504 7.38742C5.81676 7.34689 5.86748 7.26255 5.86495 7.17136L5.8646 7.15992C5.86441 7.1548 5.8642 7.1497 5.8642 7.14455C5.8642 6.60642 6.30201 6.16861 6.84016 6.16861C7.37832 6.16861 7.8161 6.60642 7.8161 7.14455C7.8161 7.1497 7.81588 7.15483 7.8157 7.15992L7.81535 7.17136C7.81285 7.26255 7.86354 7.34686 7.94526 7.38742C8.02698 7.42796 8.12482 7.41733 8.19588 7.36014C8.31148 7.26721 8.45098 7.21808 8.59938 7.21808C8.86538 7.21808 9.10766 7.38517 9.2022 7.63389C9.22866 7.70349 9.28666 7.75633 9.35841 7.77624C9.43016 7.79614 9.50707 7.78067 9.56563 7.73461C9.64257 7.67405 9.73501 7.64205 9.83291 7.64205C10.0716 7.64205 10.2658 7.83624 10.2658 8.07492C10.2658 8.19811 10.2136 8.31396 10.1238 8.39549H4.69551C4.53629 8.27405 4.4361 8.07139 4.4361 7.86292C4.43607 7.50733 4.72535 7.21808 5.08091 7.21808ZM3.9372 8.86764C3.9372 8.8653 3.9391 8.86339 3.94145 8.86339H10.7604C10.7628 8.86339 10.7647 8.8653 10.7647 8.86764V9.51302C10.7647 9.51536 10.7628 9.51727 10.7604 9.51727H8.81176C8.50116 9.51727 8.22616 9.70208 8.11116 9.98808C7.9857 10.3002 7.68729 10.5019 7.35091 10.5019C7.33238 10.5019 7.31407 10.5009 7.29582 10.4997L7.7342 10.0613C7.8617 9.9338 7.93194 9.76427 7.93194 9.58392C7.93194 9.40358 7.86173 9.23405 7.7342 9.10655C7.47098 8.84333 7.0427 8.84333 6.77948 9.10655L6.26838 9.61764C6.1562 9.55324 6.0267 9.51724 5.8901 9.51724H3.94145C3.9391 9.51724 3.9372 9.51533 3.9372 9.51299V8.86764ZM5.90007 9.98599L4.37032 11.5157L4.28863 9.98527H5.89007C5.89351 9.98527 5.89673 9.98589 5.90007 9.98599ZM9.40604 16.082H5.29582C4.91351 16.082 4.59807 15.783 4.5777 15.4012L4.46707 13.3285L5.47426 12.3213C5.56563 12.2299 5.56563 12.0818 5.47426 11.9904C5.38288 11.899 5.23473 11.899 5.14335 11.9904L3.85776 13.276C3.77701 13.3567 3.6456 13.3567 3.56485 13.276C3.4841 13.1952 3.4841 13.0638 3.56485 12.9831L7.11038 9.43755C7.19113 9.35677 7.32251 9.35677 7.40329 9.43755C7.48404 9.5183 7.48404 9.6497 7.40329 9.73046L5.93388 11.1999C5.84251 11.2912 5.84251 11.4394 5.93388 11.5308C6.02526 11.6221 6.17341 11.6221 6.26479 11.5308L6.90482 10.8907C7.04476 10.9421 7.19516 10.9699 7.35091 10.9699C7.87938 10.9699 8.34826 10.653 8.54538 10.1627C8.5887 10.0549 8.69326 9.9853 8.81173 9.9853H10.4132L10.1242 15.4013C10.1038 15.783 9.78835 16.082 9.40604 16.082ZM14.5058 16.0695C14.5005 16.0752 14.4912 16.082 14.4771 16.082H13.746C13.674 15.0691 13.4801 14.3165 13.4713 14.2828C13.4387 14.1578 13.3109 14.0828 13.1858 14.1154C13.0608 14.148 12.9858 14.2759 13.0184 14.4009C13.0205 14.4086 13.2054 15.1264 13.2767 16.082H12.4748V14.3418C12.4748 14.2126 12.3701 14.1078 12.2408 14.1078C12.1116 14.1078 12.0068 14.2126 12.0068 14.3418V16.082H11.2049C11.276 15.1313 11.4602 14.4126 11.4632 14.4009C11.4958 14.2759 11.4209 14.148 11.2959 14.1155C11.1709 14.0827 11.043 14.1578 11.0104 14.2828C11.0016 14.3165 10.8077 15.0691 10.7356 16.0821H10.3503C10.4902 15.8986 10.5783 15.673 10.5914 15.4262L10.703 13.3355H14.1834C14.2471 13.7 14.3849 14.5322 14.4675 15.3574L14.5163 16.04C14.5173 16.0541 14.5111 16.0638 14.5058 16.0695Z" fill="#BEAD8E"/>
</g>
<defs>
<clipPath id="clip0_25_3420">
<rect width="16" height="16" fill="white" transform="translate(0 0.550049)"/>
</clipPath>
</defs>
</svg>
