<svg width="16" height="17" viewBox="0 0 16 17" fill="none" xmlns="http://www.w3.org/2000/svg">
<g id="svg-gobbler - 2022-03-03T183600.191 1" clip-path="url(#clip0_24_2692)">
<g id="Group">
<g id="Group_2">
<g id="Group_3">
<path id="Vector" d="M10.4803 12.1283C10.0523 12.1283 9.7041 12.4765 9.7041 12.9045C9.7041 13.3324 10.0523 13.6806 10.4803 13.6806C10.9082 13.6806 11.2564 13.3324 11.2564 12.9045C11.2564 12.4765 10.9082 12.1283 10.4803 12.1283ZM10.4803 13.2118C10.3108 13.2118 10.1729 13.074 10.1729 12.9045C10.1729 12.735 10.3108 12.5971 10.4803 12.5971C10.6498 12.5971 10.7876 12.735 10.7876 12.9045C10.7876 13.074 10.6498 13.2118 10.4803 13.2118Z" fill="#BEAD8E"/>
</g>
</g>
<g id="Group_4">
<g id="Group_5">
<path id="Vector_2" d="M14.5194 15.1793H14.3699C14.402 15.0443 14.3807 15.1432 14.387 12.7548C14.387 12.6253 14.282 12.5204 14.1526 12.5204C14.0231 12.5204 13.9182 12.6254 13.9182 12.7548V15.0387C13.9182 15.1149 13.8538 15.1793 13.7775 15.1793H7.18262C7.1064 15.1793 7.04197 15.1149 7.04197 15.0387C7.04197 14.6622 7.04197 11.3064 7.04197 10.7704C7.04197 10.6942 7.10637 10.6298 7.18262 10.6298H13.7775C13.8537 10.6298 13.9182 10.6942 13.9182 10.7704V11.6609C13.9182 11.7904 14.0231 11.8953 14.1526 11.8953C14.2821 11.8953 14.387 11.7904 14.387 11.6609V10.7704C14.387 10.4343 14.1135 10.1609 13.7775 10.1609H8.80678L8.28403 9.98313C8.24453 9.96957 8.21803 9.93244 8.21803 9.89063V9.31613C9.06887 8.81044 9.61562 7.94013 9.71541 6.98991C10.4328 7.02316 10.9245 6.33819 10.6269 5.7442V3.83317C10.6269 2.45117 9.87528 1.97042 9.64566 1.85579C8.32134 0.274855 5.59168 0.0448554 3.91446 1.63367C3.75978 1.77892 3.86371 2.03898 4.075 2.03898C4.24765 2.03898 4.22131 1.9181 4.75493 1.57117C4.79446 1.54551 4.87109 1.50029 4.86793 1.50217C6.25012 0.672511 8.28903 0.926667 9.31691 2.1941C9.34322 2.22651 9.37525 2.25042 9.41437 2.26504C9.44475 2.27723 10.158 2.57742 10.158 3.8332V5.3127C10.028 5.25763 9.88541 5.22941 9.73341 5.23366V4.46691C9.73341 4.27241 9.58687 4.11167 9.39259 4.09292C8.99866 4.05488 8.7779 3.7982 8.66206 3.5896C8.51709 3.32854 8.171 3.26598 7.94409 3.45988C6.89887 4.35341 5.69543 4.39879 4.86978 4.27966C4.24412 4.18932 3.66581 4.61635 3.56524 5.23395C3.41349 5.22738 3.26349 5.25423 3.12565 5.31263C3.14034 4.58263 3.01637 3.79242 3.59465 2.78407C3.65906 2.67176 3.62021 2.52854 3.50796 2.4641C3.39562 2.39967 3.2524 2.43854 3.18799 2.55079C2.83531 3.16579 2.66478 3.87626 2.66021 4.38123C2.65437 4.53241 2.6579 4.47707 2.65687 5.7441C2.35881 6.33891 2.85249 7.02301 3.56834 6.98982C3.67106 7.96773 4.25062 8.86882 5.15325 9.36651V9.89054C5.15325 9.93232 5.12668 9.96944 5.08734 9.98297C4.15818 10.3078 5.25315 9.91282 2.81709 10.7767C2.60443 10.8397 2.65159 10.8233 2.56765 10.8575C2.04515 11.077 1.72224 11.4966 1.61787 12.0128C0.886649 15.6855 0.91443 15.4773 0.919399 15.677C0.942212 16.2559 1.31259 16.55 1.88296 16.55C1.89224 16.55 6.6899 16.55 6.68559 16.55C7.16115 16.55 6.97825 16.55 7.45378 16.55C7.58328 16.55 7.68819 16.445 7.68819 16.3156C7.68819 16.1861 7.58325 16.0812 7.45378 16.0812H6.68562C6.35797 16.0811 6.24946 15.6481 6.4409 15.6481C6.96722 15.6481 14.2201 15.6481 14.5195 15.6481C14.7112 15.6481 14.6015 16.0812 14.2748 16.0812H8.54765C8.41815 16.0812 8.31325 16.1861 8.31325 16.3156C8.31325 16.4451 8.41819 16.55 8.54765 16.55H14.2746C14.72 16.55 15.0823 16.1876 15.0823 15.7422C15.0824 15.4318 14.8298 15.1793 14.5194 15.1793ZM9.73341 5.70263C10.0037 5.68835 10.2457 5.87045 10.2457 6.11201C10.2457 6.35595 10.0012 6.53557 9.73341 6.52141V5.70263ZM3.55024 6.52138C3.27996 6.53573 3.03793 6.35357 3.03793 6.11201C3.03793 5.86807 3.28249 5.68845 3.55024 5.7026V6.52138ZM4.02281 6.79044C4.01687 6.68198 4.01978 6.72119 4.01906 5.51304C4.02609 5.47366 3.96862 5.15148 4.25434 4.90401C4.40496 4.77354 4.6049 4.71517 4.80278 4.7437C5.72412 4.87679 7.07 4.82379 8.24869 3.81626L8.25215 3.81717C8.47856 4.22491 8.83584 4.48232 9.26456 4.54907C9.26456 6.66791 9.29203 6.87448 9.18669 7.29391C9.12187 7.55313 9.01003 7.81482 8.87397 8.03444C7.49834 10.2087 4.151 9.35391 4.02281 6.79044ZM3.06259 16.0812H1.88287C1.48159 16.0812 1.40965 15.8913 1.39184 15.7258C1.37327 15.5533 1.41152 15.476 1.57293 14.6386H3.06259V16.0812ZM6.44081 15.1793V15.1793C6.0599 15.1793 5.76106 15.5483 5.92353 16.0099C5.93025 16.029 5.94162 16.0581 5.95237 16.0813H3.53143C3.53143 14.4592 3.53143 15.5221 3.53143 13.8718C3.53143 13.7423 3.42649 13.6374 3.29703 13.6374C3.16753 13.6374 3.06262 13.7424 3.06262 13.8718V14.1698H1.66627C2.10846 11.9504 2.08309 12.0433 2.13131 11.9154C2.22781 11.662 2.37156 11.5137 2.57784 11.3776C2.76124 11.2718 2.78203 11.2777 2.95421 11.2251C2.96662 11.2216 2.88381 11.2504 4.3054 10.7468C4.3054 10.7468 4.30546 10.7468 4.30553 10.7468L5.15456 10.4556C5.16025 10.8624 5.42087 11.2209 5.80737 11.3503C6.05206 11.4323 6.30934 11.4774 6.57318 11.4856C6.58806 15.0524 6.55184 15.0203 6.58956 15.1793H6.44081ZM6.57315 10.7703C6.57315 10.7763 6.57315 11.0199 6.57315 11.0168C6.36015 11.0089 6.15303 10.9717 5.95622 10.9057C5.75681 10.8389 5.62284 10.6526 5.62284 10.442C5.62228 9.87322 5.62375 10.2205 5.62196 9.57532C6.61237 9.91979 7.39184 9.64651 7.44481 9.64247L7.44428 9.64057L7.44743 9.63969L7.448 9.6416C7.52965 9.61504 7.55709 9.61701 7.74919 9.5431C7.74919 9.69857 7.74919 10.0019 7.74919 10.1608H7.18265C6.84659 10.1608 6.57315 10.4343 6.57315 10.7703Z" fill="#BEAD8E"/>
</g>
</g>
</g>
</g>
<defs>
<clipPath id="clip0_24_2692">
<rect width="16" height="16" fill="white" transform="translate(0 0.550049)"/>
</clipPath>
</defs>
</svg>
