<svg width="16" height="17" viewBox="0 0 16 17" fill="none" xmlns="http://www.w3.org/2000/svg">
<g id="svg-gobbler - 2022-03-03T175957.732 1" clip-path="url(#clip0_25_3430)">
<g id="Group">
<g id="Group_2">
<path id="Vector" d="M8.20732 4.80846L10.0833 5.3496H10.0833C10.1444 5.36723 10.2066 5.37598 10.2686 5.37598C10.3795 5.37598 10.4893 5.34791 10.5891 5.29278C10.7446 5.2069 10.8574 5.06561 10.9066 4.89494C11.0082 4.54259 10.8043 4.17328 10.452 4.07165L8.57601 3.53051C8.40546 3.48128 8.22573 3.50144 8.07018 3.58732C7.91467 3.67321 7.80191 3.8145 7.75269 3.98517C7.65105 4.33745 7.85501 4.7068 8.20732 4.80846ZM8.20307 4.11503C8.2176 4.06465 8.25089 4.02296 8.2968 3.99761C8.34274 3.97223 8.39577 3.96633 8.44612 3.98083L10.3221 4.52197C10.4261 4.55197 10.4863 4.66101 10.4563 4.76502C10.4417 4.8154 10.4084 4.85709 10.3625 4.88244C10.3166 4.90781 10.2636 4.91375 10.2132 4.89922H10.2132L8.33727 4.35808C8.23326 4.32808 8.17307 4.21907 8.20307 4.11503Z" fill="#BEAD8E"/>
<path id="Vector_2" d="M14.8337 12.6351C14.7135 12.3184 14.4536 11.9232 13.8922 11.6875C14.109 11.4167 14.3633 10.9571 14.3633 10.2902C14.3633 10.1608 14.2584 10.0559 14.129 10.0559C13.9995 10.0559 13.8946 10.1608 13.8946 10.2902C13.8946 10.7933 13.717 11.1426 13.5593 11.3538C13.3556 10.8788 13.0045 10.5426 12.5427 10.3911C12.4972 10.3762 12.451 10.3631 12.404 10.3519V5.78426C12.404 5.708 12.367 5.63656 12.3046 5.59265C12.2423 5.54874 12.1625 5.53789 12.0907 5.56358L11.8701 5.64253C12.008 4.73745 11.9555 3.85812 11.7157 3.13033C11.4258 2.25082 10.8841 1.65624 10.1904 1.45609C9.44228 1.24026 8.61408 1.50116 7.85833 2.19066C7.44807 2.56497 7.08479 3.04317 6.78767 3.59222L6.5074 3.14387C6.31072 2.82912 6.20678 2.46687 6.20678 2.09624V1.66008C6.45098 1.513 6.61472 1.24532 6.61472 0.940047C6.61466 0.476912 6.23784 0.100098 5.77471 0.100098H3.10832C2.64519 0.100098 2.26837 0.476912 2.26837 0.940047C2.26837 1.24526 2.43204 1.51291 2.67622 1.66002V2.09627C2.67622 2.4669 2.57227 2.82918 2.37554 3.14399L2.20524 3.4168C2.1367 3.52659 2.17014 3.67116 2.27994 3.73973C2.38979 3.80827 2.5343 3.77483 2.60287 3.66504L2.7731 3.39233C3.01637 3.00304 3.14495 2.55488 3.14495 2.09631V1.78003H5.73799V2.09627C5.73799 2.55485 5.86656 3.00298 6.10986 3.39233L6.52874 4.06239C6.53446 4.07157 6.53971 4.08064 6.54524 4.08976C6.4232 4.36898 6.31722 4.66191 6.22968 4.96528C6.13708 5.28609 6.06773 5.61034 6.02226 5.9328L4.99076 5.56364C4.9397 5.54536 4.88388 5.54536 4.83281 5.56364L3.09747 6.1847L2.05376 5.81113V5.11023C2.05376 4.88043 2.09323 4.65481 2.17102 4.43964C2.21502 4.31791 2.15205 4.18355 2.03032 4.13955C1.90862 4.09558 1.77423 4.15852 1.73023 4.28025C1.63388 4.54668 1.58503 4.82595 1.58503 5.11023V5.64337L1.36217 5.56361C1.29038 5.53792 1.21059 5.54874 1.14824 5.59268C1.08593 5.63659 1.04883 5.70803 1.04883 5.78429V15.8652C1.04883 15.9946 1.15374 16.0995 1.28319 16.0995C1.28319 16.0995 12.1186 16.1009 12.1546 16.0995H12.1697C12.1813 16.0995 12.1926 16.0984 12.2038 16.0968C12.7267 16.0683 13.2461 15.8979 13.7017 15.5794C13.8078 15.5053 13.8337 15.3592 13.7595 15.2531C13.6854 15.147 13.5392 15.1211 13.4332 15.1953C12.5166 15.836 11.2929 15.7628 10.4576 15.0383C10.949 14.4755 11.2175 13.7627 11.2175 13.0085C11.2175 12.3584 11.018 11.7391 10.6484 11.2201C11.2037 10.8223 11.8834 10.6681 12.3966 10.8365C12.8197 10.9753 13.1074 11.3246 13.2289 11.8465C13.2491 11.9336 13.317 12.0015 13.404 12.0217C13.9033 12.1379 14.2461 12.4075 14.3955 12.8013C14.5886 13.3107 14.4481 14.0136 14.0376 14.5921C13.9626 14.6976 13.9875 14.8439 14.093 14.9188C14.1342 14.9481 14.1816 14.9621 14.2284 14.9621C14.3018 14.9621 14.3741 14.9278 14.4198 14.8634C14.9258 14.1502 15.0845 13.2964 14.8337 12.6351ZM3.10832 0.568827H5.77468C5.97935 0.568827 6.1459 0.735341 6.1459 0.940047C6.1459 1.14475 5.97938 1.31127 5.77468 1.31127H3.10832C2.90365 1.31127 2.7371 1.14475 2.7371 0.940047C2.7371 0.735341 2.90365 0.568827 3.10832 0.568827ZM6.68 5.0952C6.98178 4.04926 7.51242 3.14071 8.17417 2.53694C8.80494 1.96145 9.47465 1.73749 10.0603 1.90648C10.6008 2.0624 11.0305 2.54913 11.2704 3.2771C11.5095 4.00244 11.5411 4.90243 11.3627 5.8241L10.3549 6.1847L8.61933 5.56361C8.56823 5.54533 8.51248 5.54533 8.46138 5.56361L6.72604 6.1847L6.47364 6.09438C6.5153 5.76216 6.58428 5.42691 6.68 5.0952ZM9.76465 15.6308C9.88938 15.5525 10.009 15.4649 10.1228 15.3683C10.2317 15.4652 10.3463 15.5528 10.4656 15.6308H9.76465ZM9.98054 14.8627C9.48525 15.358 8.82675 15.6308 8.12629 15.6308C7.42585 15.6308 6.76733 15.358 6.27203 14.8627C5.65576 14.2464 5.3592 13.3476 5.55084 12.677C5.69048 12.1884 6.07526 11.8578 6.66357 11.7208C6.75054 11.7006 6.81845 11.6327 6.83871 11.5457C6.97562 10.9574 7.30628 10.5726 7.79491 10.433C7.93133 10.394 8.07719 10.3752 8.22817 10.3752C8.81947 10.3752 9.48962 10.6633 9.98051 11.1541C10.4758 11.6494 10.7486 12.308 10.7486 13.0084C10.7486 13.7089 10.4759 14.3674 9.98054 14.8627ZM10.312 10.8227C9.56929 10.08 8.50601 9.74226 7.66615 9.98232C7.13176 10.135 6.72929 10.5097 6.50474 11.0538C6.32966 10.8272 6.12333 10.4411 6.12333 9.87853C6.12333 9.74908 6.01842 9.64416 5.88897 9.64416C5.75952 9.64416 5.6546 9.74908 5.6546 9.87853C5.6546 10.6056 5.93775 11.1013 6.17165 11.3869C5.62751 11.6114 5.25288 12.0139 5.10018 12.5483C4.86016 13.3881 5.19791 14.4514 5.9406 15.1942C6.1083 15.3619 6.29194 15.5078 6.48799 15.6308H1.51753V6.11707L3.0185 6.65427C3.06957 6.67255 3.12538 6.67255 3.17645 6.65427L4.91179 6.03319L6.64713 6.65427C6.69819 6.67255 6.75401 6.67255 6.80508 6.65427L8.54042 6.03319L10.276 6.65427C10.3271 6.67252 10.3829 6.67255 10.434 6.65427L11.9353 6.11704V10.2999C11.4058 10.3024 10.837 10.4991 10.3476 10.8592C10.3358 10.847 10.324 10.8348 10.312 10.8227Z" fill="#BEAD8E"/>
</g>
</g>
</g>
<defs>
<clipPath id="clip0_25_3430">
<rect width="16" height="16" fill="white" transform="translate(0 0.100098)"/>
</clipPath>
</defs>
</svg>
