<svg width="16" height="17" viewBox="0 0 16 17" fill="none" xmlns="http://www.w3.org/2000/svg">
<g id="svg-gobbler - 2022-03-03T182234.727 1" clip-path="url(#clip0_25_3354)">
<g id="Group">
<path id="Vector" d="M15.6875 5.9751H12.6562C12.4836 5.9751 12.3438 6.11499 12.3438 6.2876C12.3438 6.46021 12.4836 6.6001 12.6562 6.6001H15.375V9.2251H7.125V6.6001H9.84375C10.0164 6.6001 10.1562 6.46021 10.1562 6.2876C10.1562 6.11499 10.0164 5.9751 9.84375 5.9751H5.46521C5.78296 5.49658 5.97571 4.94775 6.02686 4.36975H6.21472C6.38733 4.36975 6.52722 4.22974 6.52722 4.05725C6.52722 3.88464 6.38733 3.74475 6.21472 3.74475H6.04089V3.5376C6.04089 3.36499 5.901 3.2251 5.72839 3.2251H1.39661C1.224 3.2251 1.08411 3.36499 1.08411 3.5376V3.74475H0.910278C0.737671 3.74475 0.597778 3.88464 0.597778 4.05725C0.597778 4.22974 0.737671 4.36975 0.910278 4.36975H1.09778C1.14856 4.94763 1.3407 5.49658 1.65759 5.9751H0.3125C0.139893 5.9751 0 6.11499 0 6.2876V15.7876C0 15.9602 0.139893 16.1001 0.3125 16.1001H15.6875C15.8601 16.1001 16 15.9602 16 15.7876V6.2876C16 6.11499 15.8601 5.9751 15.6875 5.9751ZM1.70911 4.06042V3.8501H5.41589V4.05725C5.41589 4.77295 5.15356 5.44922 4.67468 5.9751H2.44739C1.97034 5.44958 1.70911 4.77466 1.70911 4.06042ZM2.31323 6.6001H6.5V9.2251H0.625V6.6001H2.31323ZM0.625 9.8501H6.5V15.4751H0.625V9.8501ZM7.125 9.8501H10.9375V15.4751H7.125V9.8501ZM11.5625 15.4751V9.8501H15.375V15.4751H11.5625Z" fill="#BEAD8E"/>
<path id="Vector_2" d="M10.7812 7.9126C10.7812 8.08521 10.9211 8.2251 11.0938 8.2251H11.4062C11.5789 8.2251 11.7188 8.08521 11.7188 7.9126C11.7188 7.73999 11.5789 7.6001 11.4062 7.6001H11.0938C10.9211 7.6001 10.7812 7.73999 10.7812 7.9126Z" fill="#BEAD8E"/>
<path id="Vector_3" d="M2.0625 8.2251C2.14465 8.2251 2.22534 8.19165 2.28345 8.13354C2.34155 8.07544 2.375 7.99475 2.375 7.9126C2.375 7.83044 2.34155 7.74976 2.28345 7.69165C2.22534 7.63354 2.14465 7.6001 2.0625 7.6001C1.98022 7.6001 1.89966 7.63354 1.84155 7.69165C1.78345 7.74976 1.75 7.83044 1.75 7.9126C1.75 7.99475 1.78345 8.07544 1.84155 8.13354C1.89966 8.19165 1.98022 8.2251 2.0625 8.2251Z" fill="#BEAD8E"/>
<path id="Vector_4" d="M3.5625 8.2251C3.64465 8.2251 3.72534 8.19165 3.78345 8.13354C3.84155 8.07544 3.875 7.99475 3.875 7.9126C3.875 7.83044 3.84155 7.74976 3.78345 7.69165C3.72534 7.63354 3.64465 7.6001 3.5625 7.6001C3.47998 7.6001 3.39966 7.63354 3.34155 7.69165C3.28345 7.74976 3.25 7.83044 3.25 7.9126C3.25 7.99475 3.28345 8.07544 3.34155 8.13354C3.39966 8.19165 3.48022 8.2251 3.5625 8.2251Z" fill="#BEAD8E"/>
<path id="Vector_5" d="M5.0625 8.2251C5.14465 8.2251 5.22534 8.19165 5.28345 8.13354C5.34155 8.07544 5.375 7.99475 5.375 7.9126C5.375 7.83044 5.34155 7.74976 5.28345 7.69165C5.22534 7.63354 5.14465 7.6001 5.0625 7.6001C4.97998 7.6001 4.89966 7.63354 4.84155 7.69165C4.78308 7.74976 4.75 7.83044 4.75 7.9126C4.75 7.99475 4.78308 8.07544 4.84155 8.13354C4.89966 8.19165 4.97998 8.2251 5.0625 8.2251Z" fill="#BEAD8E"/>
<path id="Vector_6" d="M12.6416 12.1938C12.469 12.1938 12.3291 12.3337 12.3291 12.5063V12.8188C12.3291 12.9915 12.469 13.1313 12.6416 13.1313C12.8142 13.1313 12.9541 12.9915 12.9541 12.8188V12.5063C12.9541 12.3337 12.8142 12.1938 12.6416 12.1938Z" fill="#BEAD8E"/>
<path id="Vector_7" d="M9.8584 12.1938C9.68579 12.1938 9.5459 12.3337 9.5459 12.5063V12.8188C9.5459 12.9915 9.68579 13.1313 9.8584 13.1313C10.031 13.1313 10.1709 12.9915 10.1709 12.8188V12.5063C10.1709 12.3337 10.031 12.1938 9.8584 12.1938Z" fill="#BEAD8E"/>
<path id="Vector_8" d="M5.5625 10.3501H1.5625C1.38989 10.3501 1.25 10.49 1.25 10.6626V14.6626C1.25 14.8352 1.38989 14.9751 1.5625 14.9751H5.5625C5.73511 14.9751 5.875 14.8352 5.875 14.6626V10.6626C5.875 10.49 5.73511 10.3501 5.5625 10.3501ZM3.31653 10.9751L1.875 12.4166V10.9751H3.31653ZM1.875 13.3004L4.20032 10.9751H5.25V11.4332L2.33313 14.3501H1.875V13.3004ZM3.21704 14.3501L5.25 12.3171V14.3501H3.21704Z" fill="#BEAD8E"/>
<path id="Vector_9" d="M7.99609 1.3501H11.6211V3.02197C11.1874 3.15576 10.8711 3.56042 10.8711 4.03748C10.8711 4.62341 11.3478 5.09998 11.9336 5.09998C12.5195 5.09998 12.9961 4.62341 12.9961 4.03748C12.9961 3.56042 12.6799 3.15576 12.2461 3.02197V1.3501H14.6211V3.02197C14.1874 3.15576 13.8711 3.56042 13.8711 4.03748C13.8711 4.62341 14.3478 5.09998 14.9336 5.09998C15.5195 5.09998 15.9961 4.62341 15.9961 4.03748C15.9961 3.56042 15.6799 3.15576 15.2461 3.02197V1.3501H15.6836C15.8562 1.3501 15.9961 1.21021 15.9961 1.0376C15.9961 0.86499 15.8562 0.725098 15.6836 0.725098H15.2461V0.412598C15.2461 0.23999 15.1062 0.100098 14.9336 0.100098C14.7611 0.100098 14.6211 0.23999 14.6211 0.412598V0.725098H12.2461V0.412598C12.2461 0.23999 12.1062 0.100098 11.9336 0.100098C11.7611 0.100098 11.6211 0.23999 11.6211 0.412598V0.725098H7.99609C7.82361 0.725098 7.68359 0.86499 7.68359 1.0376C7.68359 1.21021 7.82361 1.3501 7.99609 1.3501ZM11.9336 4.47498C11.6924 4.47498 11.4961 4.27881 11.4961 4.03748C11.4961 3.79626 11.6924 3.59998 11.9336 3.59998C12.1749 3.59998 12.3711 3.79626 12.3711 4.03748C12.3711 4.27881 12.1749 4.47498 11.9336 4.47498ZM14.9336 4.47498C14.6924 4.47498 14.4961 4.27881 14.4961 4.03748C14.4961 3.79626 14.6924 3.59998 14.9336 3.59998C15.1749 3.59998 15.3711 3.79626 15.3711 4.03748C15.3711 4.27881 15.1749 4.47498 14.9336 4.47498Z" fill="#BEAD8E"/>
<path id="Vector_10" d="M11.4709 6.50854C11.5291 6.45044 11.5625 6.36975 11.5625 6.2876C11.5625 6.20544 11.5291 6.12476 11.4709 6.06665C11.4128 6.00854 11.3322 5.9751 11.25 5.9751C11.1675 5.9751 11.0872 6.00854 11.0291 6.06665C10.9709 6.12476 10.9375 6.20544 10.9375 6.2876C10.9375 6.36975 10.9709 6.45044 11.0291 6.50854C11.0872 6.56665 11.1675 6.6001 11.25 6.6001C11.3322 6.6001 11.4128 6.56665 11.4709 6.50854Z" fill="#BEAD8E"/>
</g>
</g>
<defs>
<clipPath id="clip0_25_3354">
<rect width="16" height="16" fill="white" transform="translate(0 0.100098)"/>
</clipPath>
</defs>
</svg>
