<svg width="16" height="17" viewBox="0 0 16 17" fill="none" xmlns="http://www.w3.org/2000/svg">
<g id="svg-gobbler - 2022-03-03T181136.019 1" clip-path="url(#clip0_25_3438)">
<g id="Group">
<g id="Group_2">
<g id="Group_3">
<path id="Vector" d="M15.6875 12.9961H15.0676V6.63299C15.4328 6.35143 15.6686 5.90968 15.6686 5.41389V3.73889C15.6686 3.73595 15.6669 3.66586 15.6438 3.6157L14.6519 1.13473C14.6044 1.01605 14.4895 0.938232 14.3617 0.938232H1.63828C1.51047 0.938232 1.39556 1.01605 1.34809 1.13473L0.35625 3.6157C0.333094 3.66055 0.331437 3.73595 0.331437 3.73889V5.41389C0.331437 5.90968 0.567187 6.35143 0.932437 6.63299V12.9961H0.3125C0.139906 12.9961 0 13.136 0 13.3086V14.9494C0 15.122 0.139906 15.2619 0.3125 15.2619H6.58731C6.75991 15.2619 6.89981 15.122 6.89981 14.9494C6.89981 14.7768 6.75991 14.6369 6.58731 14.6369H0.625V13.6211H15.375V14.6369H9.41272C9.24012 14.6369 9.10022 14.7768 9.10022 14.9494C9.10022 15.122 9.24012 15.2619 9.41272 15.2619H15.6875C15.8601 15.2619 16 15.122 16 14.9494V13.3086C16 13.136 15.8601 12.9961 15.6875 12.9961ZM12.5915 5.41389C12.5915 5.91761 12.1817 6.32739 11.678 6.32739C11.1743 6.32739 10.7645 5.91758 10.7645 5.41389V4.05045H12.5915V5.41389ZM10.1395 5.41389C10.1395 5.91761 9.72972 6.32739 9.22603 6.32739C8.72234 6.32739 8.3125 5.91761 8.3125 5.41389V4.05045H10.1395V5.41389ZM7.6875 5.41389C7.6875 5.91761 7.27769 6.32739 6.774 6.32739C6.27031 6.32739 5.8605 5.91758 5.8605 5.41389V4.05045H7.6875V5.41389ZM5.2355 5.41389C5.2355 5.91761 4.82569 6.32739 4.322 6.32739C3.81831 6.32739 3.4085 5.91758 3.4085 5.41389V4.05045H5.23553V5.41389H5.2355ZM0.956438 5.41389V4.05045H2.78344V5.41389C2.78344 5.91761 2.37363 6.32739 1.86994 6.32739C1.36625 6.32739 0.956438 5.91761 0.956438 5.41389ZM5.52253 1.56323L5.27437 3.42545H3.50266L3.99897 1.56323H5.52253ZM8.3125 1.56323H9.84694L10.0951 3.42545H8.3125V1.56323ZM12.001 1.56323L12.4973 3.42545H10.7257L10.4775 1.56323H12.001ZM13.2165 4.05045H15.0435V5.41389C15.0435 5.91761 14.6337 6.32739 14.13 6.32739C13.6263 6.32739 13.2165 5.91758 13.2165 5.41389V4.05045ZM14.8946 3.42545H13.1441L12.6478 1.56323H14.1501L14.8946 3.42545ZM7.6875 3.42545H5.90491L6.15306 1.56323H7.6875V3.42545ZM1.84991 1.56323H3.35216L2.85584 3.42545H1.10544L1.84991 1.56323ZM3.05628 12.9961V8.44821H6.28944V12.9961H3.05628V12.9961ZM6.91444 12.9961V8.13571C6.91444 7.96312 6.77453 7.82321 6.60194 7.82321H2.74378C2.57119 7.82321 2.43128 7.96312 2.43128 8.13571V12.9961H1.55744V6.92049C1.65838 6.9414 1.76291 6.9524 1.86994 6.9524C2.36981 6.9524 2.81472 6.71274 3.09594 6.34233C3.37713 6.71274 3.82206 6.9524 4.32194 6.9524C4.82181 6.9524 5.26675 6.71274 5.54794 6.34233C5.82912 6.71274 6.27406 6.9524 6.77394 6.9524C7.27381 6.9524 7.71875 6.71274 7.99994 6.34233C8.28113 6.71274 8.72606 6.9524 9.22594 6.9524C9.72581 6.9524 10.1708 6.71274 10.4519 6.34233C10.7331 6.71274 11.1781 6.9524 11.6779 6.9524C12.1778 6.9524 12.6228 6.71274 12.9039 6.34233C13.1851 6.71274 13.6301 6.9524 14.1299 6.9524C14.237 6.9524 14.3415 6.9414 14.4424 6.92049V12.9961H6.91444V12.9961Z" fill="#BEAD8E"/>
<path id="Vector_2" d="M13.2565 7.82324H8.39746C8.22487 7.82324 8.08496 7.96315 8.08496 8.13574V11.5347C8.08496 11.7073 8.22487 11.8472 8.39746 11.8472H13.2565C13.4291 11.8472 13.569 11.7073 13.569 11.5347V8.13574C13.569 7.96315 13.4291 7.82324 13.2565 7.82324ZM12.944 11.2222H10.7988L11.3256 10.6954C11.4476 10.5734 11.4476 10.3755 11.3256 10.2534C11.2036 10.1314 11.0057 10.1314 10.8836 10.2534L9.9149 11.2222H8.70993V8.44824H12.944V11.2222H12.944Z" fill="#BEAD8E"/>
<g id="Group_4">
<path id="Vector_3" d="M9.45703 10.629C9.37706 10.629 9.29706 10.5985 9.23606 10.5374C9.11402 10.4154 9.11402 10.2175 9.23606 10.0955L10.4806 8.85092C10.6026 8.72889 10.8005 8.72889 10.9226 8.85092C11.0446 8.97295 11.0446 9.17083 10.9226 9.29289L9.67803 10.5374C9.61696 10.5985 9.537 10.629 9.45703 10.629Z" fill="#BEAD8E"/>
</g>
<g id="Group_5">
<path id="Vector_4" d="M8.00526 15.2619C7.8728 15.2619 7.75221 15.1749 7.70964 15.0498C7.66821 14.9281 7.70771 14.7897 7.80702 14.7079C7.90898 14.624 8.05805 14.6141 8.17017 14.684C8.27929 14.752 8.3372 14.884 8.31182 15.0104C8.28286 15.1546 8.15258 15.2619 8.00526 15.2619Z" fill="#BEAD8E"/>
</g>
</g>
</g>
</g>
</g>
<defs>
<clipPath id="clip0_25_3438">
<rect width="16" height="16" fill="white" transform="translate(0 0.100098)"/>
</clipPath>
</defs>
</svg>
