<svg width="16" height="17" viewBox="0 0 16 17" fill="none" xmlns="http://www.w3.org/2000/svg">
<g id="svg-gobbler - 2022-03-03T175754.588 1" clip-path="url(#clip0_23_2491)">
<g id="Group">
<g id="XMLID_1173_">
<g id="XMLID_38_">
<path id="XMLID_44_" d="M10.7715 9.89099C10.6893 9.89099 10.6087 9.92411 10.5505 9.98223C10.4924 10.0407 10.459 10.1213 10.459 10.2035C10.459 10.2856 10.4924 10.3663 10.5505 10.4244C10.6087 10.4825 10.6893 10.5159 10.7715 10.5159C10.8536 10.5159 10.9343 10.4825 10.9924 10.4244C11.0505 10.3663 11.0839 10.2856 11.0839 10.2035C11.0839 10.1213 11.0505 10.0407 10.9924 9.98223C10.9343 9.92408 10.8536 9.89099 10.7715 9.89099Z" fill="#BEAD8E"/>
<path id="XMLID_381_" d="M15.9999 9.51595C15.9999 9.07373 15.7112 8.69785 15.3125 8.5663V2.23744C15.3125 1.30703 14.5555 0.550049 13.6251 0.550049H12.9608C12.1272 0.550049 11.4333 1.15788 11.2978 1.95355C10.6269 2.08779 10.1197 2.68134 10.1197 3.3912V3.73734C10.1197 3.90989 10.2596 4.04982 10.4322 4.04982H12.7398C12.9123 4.04982 13.0522 3.90989 13.0522 3.73734V3.3912C13.0522 2.70244 12.5747 2.12341 11.9335 1.96692C12.0534 1.5117 12.4685 1.17501 12.9608 1.17501H13.6251C14.2109 1.17501 14.6875 1.6516 14.6875 2.23744V8.51602H7.97264C7.79618 8.36059 7.56494 8.26604 7.31187 8.26604H4.5643C4.31122 8.26604 4.07999 8.36059 3.90353 8.51602H1.00091C0.44954 8.51602 0.000976562 8.96458 0.000976562 9.51595C0.000976562 9.95817 0.289676 10.3341 0.688431 10.4656V11.6929C0.688431 12.6158 1.01213 13.4645 1.55169 14.1317L1.03175 15.0695C0.769863 15.5419 0.937352 16.1459 1.40513 16.416C1.55887 16.5048 1.72911 16.5501 1.90169 16.5501C1.99131 16.5501 2.08159 16.5378 2.17046 16.5131C2.43032 16.4409 2.64533 16.2711 2.77586 16.035L3.17292 15.3167C3.60768 15.4853 4.07999 15.5781 4.57358 15.5781H11.4273C11.9209 15.5781 12.3932 15.4853 12.828 15.3167L13.225 16.0351C13.3556 16.2711 13.5706 16.4409 13.8305 16.5131C13.9193 16.5378 14.0095 16.55 14.0992 16.55C14.2717 16.55 14.442 16.5048 14.5958 16.416C15.0636 16.1459 15.231 15.5419 14.9691 15.0695L14.4492 14.1317C14.9888 13.4645 15.3125 12.6158 15.3125 11.6929V10.4656C15.7112 10.3341 15.9999 9.95817 15.9999 9.51595ZM12.4272 3.3912V3.42486H10.7446V3.3912C10.7446 2.9273 11.1221 2.54992 11.5859 2.54992C12.0498 2.54992 12.4272 2.9273 12.4272 3.3912ZM4.5643 8.891H7.31187C7.51926 8.891 7.68797 9.0597 7.68797 9.26709V12.5158H4.1882V9.26709C4.1882 9.0597 4.35694 8.891 4.5643 8.891ZM1.00091 9.14098H3.57146C3.56624 9.18232 3.56324 9.22435 3.56324 9.26709V9.89093H1.00091C0.794143 9.89093 0.625935 9.72272 0.625935 9.51595C0.625935 9.30919 0.794143 9.14098 1.00091 9.14098ZM2.22889 15.7326C2.18021 15.8207 2.10002 15.8841 2.00306 15.911C1.90607 15.9379 1.80473 15.925 1.71758 15.8748C1.54312 15.774 1.48063 15.5487 1.57834 15.3725L2.00419 14.6044C2.19096 14.7694 2.39363 14.9168 2.60962 15.0439L2.22889 15.7326ZM14.2833 15.8748C14.1962 15.925 14.0948 15.9379 13.9978 15.911C13.9009 15.8841 13.8207 15.8207 13.772 15.7327L13.3912 15.0439C13.6072 14.9168 13.8099 14.7694 13.9967 14.6044L14.4225 15.3725C14.5203 15.5487 14.4578 15.774 14.2833 15.8748ZM15 9.89093H12.1773C12.0047 9.89093 11.8648 10.0309 11.8648 10.2034C11.8648 10.376 12.0047 10.5159 12.1773 10.5159H14.6875V11.6929C14.6875 13.4906 13.225 14.9531 11.4273 14.9531H4.57358C2.77592 14.9531 1.31339 13.4906 1.31339 11.6929V10.5159H3.56324V12.8282C3.56324 13.0008 3.70317 13.1407 3.87572 13.1407H8.00045C8.173 13.1407 8.31293 13.0008 8.31293 12.8282V10.5159H9.36517C9.53772 10.5159 9.67765 10.376 9.67765 10.2034C9.67765 10.0309 9.53772 9.89093 9.36517 9.89093H8.31293V9.26709C8.31293 9.22435 8.30993 9.18232 8.30471 9.14098H15C15.2067 9.14098 15.375 9.30919 15.375 9.51595C15.375 9.72272 15.2067 9.89093 15 9.89093Z" fill="#BEAD8E"/>
</g>
</g>
</g>
</g>
<defs>
<clipPath id="clip0_23_2491">
<rect width="16" height="16" fill="white" transform="translate(0 0.550049)"/>
</clipPath>
</defs>
</svg>
