<svg width="16" height="17" viewBox="0 0 16 17" fill="none" xmlns="http://www.w3.org/2000/svg">
<g id="svg-gobbler - 2022-03-03T175754.588 1" clip-path="url(#clip0_25_3370)">
<g id="Group">
<g id="XMLID_1173_">
<g id="XMLID_38_">
<path id="XMLID_44_" d="M10.7715 9.44104C10.6893 9.44104 10.6087 9.47416 10.5505 9.53228C10.4924 9.59071 10.459 9.67133 10.459 9.75351C10.459 9.83569 10.4924 9.91631 10.5505 9.97443C10.6087 10.0325 10.6893 10.066 10.7715 10.066C10.8536 10.066 10.9343 10.0325 10.9924 9.97443C11.0505 9.91631 11.0839 9.83569 11.0839 9.75351C11.0839 9.67133 11.0505 9.59071 10.9924 9.53228C10.9343 9.47413 10.8536 9.44104 10.7715 9.44104Z" fill="#BEAD8E"/>
<path id="XMLID_381_" d="M15.9999 9.066C15.9999 8.62378 15.7112 8.2479 15.3125 8.11635V1.78749C15.3125 0.857079 14.5555 0.100098 13.6251 0.100098H12.9608C12.1272 0.100098 11.4333 0.707932 11.2978 1.5036C10.6269 1.63784 10.1197 2.23139 10.1197 2.94125V3.28739C10.1197 3.45994 10.2596 3.59987 10.4322 3.59987H12.7398C12.9123 3.59987 13.0522 3.45994 13.0522 3.28739V2.94125C13.0522 2.25249 12.5747 1.67346 11.9335 1.51697C12.0534 1.06175 12.4685 0.725056 12.9608 0.725056H13.6251C14.2109 0.725056 14.6875 1.20165 14.6875 1.78749V8.06607H7.97264C7.79618 7.91064 7.56494 7.81608 7.31187 7.81608H4.5643C4.31122 7.81608 4.07999 7.91064 3.90353 8.06607H1.00091C0.44954 8.06607 0.000976562 8.51463 0.000976562 9.066C0.000976562 9.50822 0.289676 9.8841 0.688431 10.0157V11.243C0.688431 12.1659 1.01213 13.0146 1.55169 13.6818L1.03175 14.6195C0.769863 15.0919 0.937352 15.6959 1.40513 15.9661C1.55887 16.0549 1.72911 16.1001 1.90169 16.1001C1.99131 16.1001 2.08159 16.0879 2.17046 16.0632C2.43032 15.9909 2.64533 15.8211 2.77586 15.5851L3.17292 14.8667C3.60768 15.0354 4.07999 15.1281 4.57358 15.1281H11.4273C11.9209 15.1281 12.3932 15.0354 12.828 14.8667L13.225 15.5851C13.3556 15.8212 13.5706 15.9909 13.8305 16.0632C13.9193 16.0879 14.0095 16.1001 14.0992 16.1001C14.2717 16.1001 14.442 16.0548 14.5958 15.966C15.0636 15.696 15.231 15.0919 14.9691 14.6195L14.4492 13.6818C14.9888 13.0146 15.3125 12.1659 15.3125 11.243V10.0157C15.7112 9.8841 15.9999 9.50822 15.9999 9.066ZM12.4272 2.94125V2.97491H10.7446V2.94125C10.7446 2.47735 11.1221 2.09996 11.5859 2.09996C12.0498 2.09996 12.4272 2.47735 12.4272 2.94125ZM4.5643 8.44104H7.31187C7.51926 8.44104 7.68797 8.60975 7.68797 8.81714V12.0658H4.1882V8.81714C4.1882 8.60975 4.35694 8.44104 4.5643 8.44104ZM1.00091 8.69103H3.57146C3.56624 8.73237 3.56324 8.7744 3.56324 8.81714V9.44098H1.00091C0.794143 9.44098 0.625935 9.27277 0.625935 9.066C0.625935 8.85923 0.794143 8.69103 1.00091 8.69103ZM2.22889 15.2827C2.18021 15.3707 2.10002 15.4341 2.00306 15.461C1.90607 15.488 1.80473 15.4751 1.71758 15.4248C1.54312 15.3241 1.48063 15.0987 1.57834 14.9226L2.00419 14.1545C2.19096 14.3195 2.39363 14.4668 2.60962 14.5939L2.22889 15.2827ZM14.2833 15.4248C14.1962 15.4751 14.0948 15.488 13.9978 15.461C13.9009 15.4341 13.8207 15.3707 13.772 15.2827L13.3912 14.5939C13.6072 14.4668 13.8099 14.3195 13.9967 14.1545L14.4225 14.9226C14.5203 15.0987 14.4578 15.3241 14.2833 15.4248ZM15 9.44098H12.1773C12.0047 9.44098 11.8648 9.58091 11.8648 9.75346C11.8648 9.92601 12.0047 10.0659 12.1773 10.0659H14.6875V11.243C14.6875 13.0406 13.225 14.5031 11.4273 14.5031H4.57358C2.77592 14.5031 1.31339 13.0406 1.31339 11.243V10.0659H3.56324V12.3783C3.56324 12.5508 3.70317 12.6908 3.87572 12.6908H8.00045C8.173 12.6908 8.31293 12.5508 8.31293 12.3783V10.0659H9.36517C9.53772 10.0659 9.67765 9.92601 9.67765 9.75346C9.67765 9.58091 9.53772 9.44098 9.36517 9.44098H8.31293V8.81714C8.31293 8.7744 8.30993 8.73237 8.30471 8.69103H15C15.2067 8.69103 15.375 8.85923 15.375 9.066C15.375 9.27277 15.2067 9.44098 15 9.44098Z" fill="#BEAD8E"/>
</g>
</g>
</g>
</g>
<defs>
<clipPath id="clip0_25_3370">
<rect width="16" height="16" fill="white" transform="translate(0 0.100098)"/>
</clipPath>
</defs>
</svg>
