<svg width="16" height="17" viewBox="0 0 16 17" fill="none" xmlns="http://www.w3.org/2000/svg">
<g id="svg-gobbler - 2022-03-03T182946.721 1">
<g id="Group">
<g id="Group_2">
<g id="Group_3">
<path id="Vector" d="M16 8.97923C16 8.44998 15.7104 7.97314 15.2442 7.73476C14.7688 7.49164 14.1532 7.36836 13.4146 7.36836H5.38572C5.32791 7.07986 5.19981 6.81773 5.00766 6.60414L3.86906 5.33842C3.58731 5.0252 3.18244 4.83501 2.72906 4.80295L2.52453 4.78848C2.41981 4.78095 2.31341 4.79573 2.21128 4.82998V4.16089C2.21128 3.92651 2.11256 3.71486 1.95475 3.56489C2.11478 3.37308 2.21128 3.12645 2.21128 2.8577C2.21128 2.24804 1.71528 1.75208 1.10566 1.75208C0.496031 1.75208 0 2.24808 0 2.85773C0 3.12651 0.0965 3.37311 0.256531 3.56492C0.0987187 3.71492 0 3.92654 0 4.16092V14.1356C0 14.3082 0.139906 14.4481 0.3125 14.4481H1.39109C1.55228 14.4481 1.68703 14.3255 1.70222 14.165C1.73944 13.7715 1.94753 12.6908 2.46309 12.2061H3.29988C3.47247 12.2061 3.61238 12.0662 3.61238 11.8936C3.61238 11.721 3.47247 11.5811 3.29988 11.5811L0.624969 11.5811V8.82995L4.79609 8.82986V9.6442C4.79609 10.126 5.18806 10.518 5.66991 10.518H5.66997H15.1262C15.2101 10.518 15.2946 10.5058 15.375 10.4819V11.5811H13.6529C13.6527 11.5811 13.6524 11.5811 13.6521 11.5811H6.04956C5.87697 11.5811 5.73706 11.7211 5.73706 11.8936C5.73706 12.0662 5.87697 12.2061 6.04956 12.2061H13.5369C14.0504 12.6895 14.2599 13.7712 14.2978 14.1651C14.313 14.3256 14.4477 14.4482 14.6089 14.4482H15.6875C15.8601 14.4482 16 14.3082 16 14.1357V8.97923ZM2.21203 5.85176C2.21669 5.71861 2.19844 5.58101 2.30816 5.48311C2.41853 5.38461 2.55094 5.41689 2.68494 5.42639C2.98019 5.44729 3.22897 5.56139 3.40438 5.75642L4.54297 7.02217C4.72753 7.22729 4.81606 7.51323 4.79222 7.8272C4.78306 7.94808 4.78525 8.05523 4.68337 8.14051C4.59028 8.21845 4.48925 8.20392 4.37719 8.20057C4.06244 8.19114 3.78747 8.07295 3.60291 7.86779L2.46431 6.60208C2.28016 6.39729 2.20253 6.12364 2.21203 5.85176ZM0.625 8.20492V4.16092C0.625 4.05198 0.713625 3.96336 0.822563 3.96336H1.38866C1.49759 3.96336 1.58622 4.05198 1.58622 4.16092V8.20489H0.625V8.20492ZM2.21125 7.2552L3.06556 8.20492H2.21125V7.2552ZM1.10563 2.37711C1.37063 2.37711 1.58625 2.5927 1.58625 2.85773C1.58625 3.12276 1.37066 3.33836 1.10563 3.33836C0.840594 3.33836 0.625 3.12276 0.625 2.85773C0.625 2.5927 0.840594 2.37711 1.10563 2.37711ZM1.11881 13.8232H0.625V12.2062H1.67288C1.33469 12.7598 1.18175 13.4446 1.11881 13.8232ZM5.66994 9.89304C5.53278 9.89304 5.42119 9.78145 5.42119 9.64429L5.42106 7.99336H13.4146C14.0533 7.99336 14.5732 8.09358 14.9596 8.2912C15.2158 8.4222 15.375 8.68583 15.375 8.97923V9.64311C15.375 9.64351 15.3749 9.64392 15.3749 9.64433C15.3749 9.78148 15.2633 9.89307 15.1262 9.89307H5.66994V9.89304ZM14.8812 13.8232C14.8182 13.4446 14.6653 12.7598 14.3272 12.2062H15.375V13.8232H14.8812Z" fill="#BEAD8E"/>
<path id="Vector_2" d="M4.96371 11.7742C4.89905 11.6166 4.71246 11.5403 4.55558 11.6051C4.39814 11.6702 4.32136 11.8559 4.38652 12.0133C4.45164 12.1706 4.63736 12.2475 4.79465 12.1823C4.95162 12.1173 5.02906 11.9312 4.96371 11.7742Z" fill="#BEAD8E"/>
</g>
</g>
</g>
</g>
</svg>
