<svg width="16" height="17" viewBox="0 0 16 17" fill="none" xmlns="http://www.w3.org/2000/svg">
<g id="svg-gobbler - 2022-03-03T183435.137 1" clip-path="url(#clip0_24_2679)">
<g id="Group">
<g id="Group_2">
<path id="Vector" d="M13.1562 7.25567V5.7063C13.1562 2.86314 10.8432 0.550049 8 0.550049C5.15684 0.550049 2.84375 2.86314 2.84375 5.7063V7.25567C2.29816 7.44917 1.90625 7.97021 1.90625 8.5813V10.4563C1.90625 13.8164 4.63991 16.55 8 16.55C11.3601 16.55 14.0938 13.8164 14.0938 10.4563V8.5813C14.0938 7.97021 13.7018 7.44917 13.1562 7.25567ZM8 1.48755C10.3262 1.48755 12.2188 3.38008 12.2188 5.7063V7.17505H11.2812V5.7063C11.2812 3.89702 9.80928 2.42505 8 2.42505C6.19072 2.42505 4.71875 3.89702 4.71875 5.7063V7.17505H3.78125V5.7063C3.78125 3.38008 5.67378 1.48755 8 1.48755ZM5.65625 7.17505V5.7063C5.65625 4.41396 6.70766 3.36255 8 3.36255C9.29234 3.36255 10.3438 4.41396 10.3438 5.7063V7.17505H5.65625ZM13.1562 10.4563C13.1562 13.2995 10.8432 15.6125 8 15.6125C5.15684 15.6125 2.84375 13.2995 2.84375 10.4563V8.5813C2.84375 8.32283 3.05403 8.11255 3.3125 8.11255H12.6875C12.946 8.11255 13.1562 8.32283 13.1562 8.5813V10.4563Z" fill="#BEAD8E"/>
<path id="Vector_2" d="M8 9.05005C7.22459 9.05005 6.59375 9.68089 6.59375 10.4563C6.59375 11.0674 6.98566 11.5884 7.53125 11.7819V14.2063C7.53125 14.4652 7.74112 14.675 8 14.675C8.25888 14.675 8.46875 14.4652 8.46875 14.2063V11.7819C9.01434 11.5884 9.40625 11.0674 9.40625 10.4563C9.40625 9.68089 8.77541 9.05005 8 9.05005ZM8 10.925C7.74153 10.925 7.53125 10.7148 7.53125 10.4563C7.53125 10.1978 7.74153 9.98755 8 9.98755C8.25847 9.98755 8.46875 10.1978 8.46875 10.4563C8.46875 10.7148 8.25847 10.925 8 10.925Z" fill="#BEAD8E"/>
</g>
</g>
</g>
<defs>
<clipPath id="clip0_24_2679">
<rect width="16" height="16" fill="white" transform="translate(0 0.550049)"/>
</clipPath>
</defs>
</svg>
