<svg width="16" height="17" viewBox="0 0 16 17" fill="none" xmlns="http://www.w3.org/2000/svg">
<g clip-path="url(#clip0_24_2650)">
<path d="M13.4175 7.24422C13.2912 7.11797 13.0864 7.11797 12.9601 7.24422C12.3677 7.83654 11.5203 8.10561 10.6936 7.96379C10.5175 7.93376 10.3504 8.05186 10.3201 8.22789C10.2899 8.40392 10.4082 8.57118 10.5842 8.60133C10.766 8.63252 10.9484 8.64777 11.13 8.64777C11.9803 8.64777 12.8071 8.31195 13.4175 7.70164C13.5438 7.57535 13.5438 7.37057 13.4175 7.24422Z" fill="#BEAD8E"/>
<path d="M14.576 1.97374C12.6777 0.0754944 9.58858 0.0754631 7.68989 1.97377C6.29189 3.37206 5.88317 5.48343 6.63914 7.29396L0.0947323 13.8384C0.0301697 13.903 -0.0040803 13.9918 0.000388454 14.0829L0.101295 16.1418C0.10942 16.3081 0.242326 16.4409 0.408545 16.449L2.46711 16.5496C2.47242 16.5499 2.47764 16.55 2.48292 16.55C2.56845 16.55 2.65073 16.5161 2.71155 16.4553L3.41758 15.7496C3.47827 15.689 3.51236 15.6067 3.51236 15.5209V14.0066H5.02661C5.11239 14.0066 5.19467 13.9726 5.2553 13.9119L6.04667 13.1205C6.10733 13.0598 6.14139 12.9776 6.14139 12.8918V11.3776H7.65564C7.74143 11.3776 7.82371 11.3435 7.88433 11.2828L9.2563 9.91086C11.0671 10.6666 13.1782 10.2578 14.5762 8.86018C14.5762 8.86015 14.5762 8.86015 14.5762 8.86012C16.4746 6.96146 16.4744 3.87224 14.576 1.97374ZM14.1189 8.40271C12.8594 9.66205 10.9322 9.99562 9.3234 9.2328C9.19977 9.17427 9.05283 9.19968 8.95615 9.29636L7.52174 10.7308H5.81802C5.63939 10.7308 5.49461 10.8756 5.49461 11.0542V12.7579L4.89267 13.3598H3.18892C3.0103 13.3598 2.86552 13.5046 2.86552 13.6832V15.3869L2.35558 15.8966L0.733014 15.8173L0.653483 14.1945L7.25374 7.59421C7.35043 7.49752 7.37586 7.35046 7.31727 7.22693C6.55424 5.61824 6.88783 3.69096 8.14733 2.43118C9.79374 0.785088 12.4724 0.784994 14.1186 2.43115C15.7649 4.07743 15.765 6.7563 14.1189 8.40271Z" fill="#BEAD8E"/>
<path d="M12.8934 3.65645C12.6081 3.3712 12.2289 3.21411 11.8256 3.21411C11.4222 3.21411 11.043 3.3712 10.7577 3.65652C10.1693 4.24527 10.1693 5.2032 10.7578 5.7921C11.0522 6.08632 11.4389 6.23342 11.8255 6.23342C12.2122 6.23342 12.5989 6.08632 12.8933 5.79214C12.8933 5.79211 12.8933 5.79211 12.8934 5.79207C13.1786 5.50686 13.3357 5.12761 13.3357 4.72423C13.3357 4.32086 13.1786 3.9417 12.8934 3.65645ZM12.436 5.3347C12.0994 5.67104 11.5516 5.67095 11.2152 5.33479C10.8788 4.99814 10.8788 4.45039 11.2152 4.11389C11.3782 3.95083 11.595 3.86102 11.8256 3.86102C12.0562 3.86102 12.2729 3.95083 12.436 4.11389C12.5991 4.27692 12.6889 4.4937 12.6889 4.7243C12.6889 4.95489 12.599 5.17164 12.436 5.3347Z" fill="#BEAD8E"/>
<path d="M13.787 6.42871C13.3708 6.42871 13.3701 7.07555 13.787 7.07555C14.2032 7.07555 14.2039 6.42871 13.787 6.42871Z" fill="#BEAD8E"/>
</g>
<defs>
<clipPath id="clip0_24_2650">
<rect width="16" height="16" fill="white" transform="translate(0 0.550049)"/>
</clipPath>
</defs>
</svg>
