<svg width="16" height="17" viewBox="0 0 16 17" fill="none" xmlns="http://www.w3.org/2000/svg">
<g id="svg-gobbler - 2022-03-03T183514.620 1" clip-path="url(#clip0_24_2684)">
<g id="Group">
<g id="Group_2">
<path id="Vector" d="M14.8769 7.52576C14.8156 5.78051 14.1089 4.14851 12.8679 2.90751C11.5671 1.60651 9.83838 0.890259 8.00038 0.890259C4.28813 0.890259 1.25488 3.84501 1.12413 7.52576C0.557632 7.77751 0.161133 8.34451 0.161133 9.00351V10.819C0.161133 11.7105 0.886382 12.436 1.77813 12.436C2.35513 12.436 2.82438 11.9668 2.82438 11.3898V8.43251C2.82438 7.89076 2.40888 7.44901 1.88063 7.39651C2.07563 4.18976 4.74513 1.64026 8.00038 1.64026C9.63838 1.64026 11.1786 2.27876 12.3379 3.43801C13.4024 4.50251 14.0254 5.89001 14.1191 7.39676C13.5914 7.44976 13.1766 7.89126 13.1766 8.43251V11.3895C13.1766 11.9358 13.5986 12.3803 14.1331 12.4265V13.1738C14.1331 14.0153 13.4484 14.6998 12.6069 14.6998H11.4766C11.4211 14.5413 11.3341 14.3948 11.2121 14.2733C10.9984 14.0585 10.7134 13.9403 10.4099 13.9403H9.24488C9.07763 13.9403 8.91713 13.9758 8.77013 14.0443C8.36913 14.2285 8.11013 14.633 8.11013 15.0748C8.11013 15.3783 8.22838 15.6633 8.44263 15.8765C8.65688 16.0913 8.94188 16.2095 9.24488 16.2095H10.4099C10.8929 16.2095 11.3186 15.8973 11.4774 15.4498H12.6069C13.8621 15.4498 14.8831 14.4288 14.8831 13.1738V12.293C15.4461 12.0398 15.8396 11.4748 15.8396 10.8185V9.00301C15.8396 8.34451 15.4431 7.77751 14.8769 7.52576ZM2.07413 8.43251V11.3895C2.07413 11.5528 1.94138 11.6858 1.77788 11.6858C1.29988 11.6858 0.910882 11.2968 0.910882 10.8188V9.00326C0.910882 8.52501 1.29988 8.13626 1.77788 8.13626C1.94138 8.13626 2.07413 8.26926 2.07413 8.43251ZM10.7861 15.1553C10.7489 15.3318 10.5904 15.46 10.4096 15.46H9.24463C9.14213 15.46 9.04588 15.42 8.97238 15.3465C8.89988 15.2743 8.85988 15.1778 8.85988 15.0753C8.85988 14.9255 8.94763 14.7888 9.08513 14.7255C9.13413 14.7025 9.18788 14.6908 9.24463 14.6908H10.4096C10.5121 14.6908 10.6084 14.7305 10.6816 14.804C10.7541 14.8763 10.7941 14.9728 10.7941 15.0753C10.7944 15.1028 10.7914 15.1303 10.7861 15.1553ZM15.0896 10.8188C15.0896 11.2968 14.7006 11.6858 14.2226 11.6858C14.0594 11.6858 13.9264 11.553 13.9264 11.3895V8.43251C13.9264 8.26926 14.0591 8.13626 14.2226 8.13626C14.7006 8.13626 15.0896 8.52526 15.0896 9.00326V10.8188Z" fill="#BEAD8E"/>
<path id="Vector_2" d="M10.4289 10.948C11.3051 10.948 12.0179 10.235 12.0179 9.35897V6.12122C12.0179 5.69773 11.8524 5.29873 11.5519 4.99823C11.2514 4.69773 10.8526 4.53223 10.4289 4.53223H5.5724C4.69615 4.53223 3.9834 5.24498 3.9834 6.12122V9.35897C3.9834 10.2352 4.69615 10.948 5.5724 10.948H5.60215V11.787C5.60215 12.107 5.7929 12.391 6.0879 12.5107C6.18315 12.549 6.28215 12.568 6.38015 12.568C6.5844 12.568 6.7834 12.487 6.92915 12.3362L8.3249 10.948H10.4289ZM7.90615 10.307L6.39565 11.8092C6.3889 11.8162 6.3839 11.8215 6.36965 11.8152C6.3524 11.8082 6.3524 11.797 6.3524 11.787V10.573C6.3524 10.366 6.18465 10.198 5.9774 10.198H5.57265C5.1099 10.198 4.73365 9.82147 4.73365 9.35897V6.12122C4.73365 5.65848 5.1099 5.28223 5.57265 5.28223H10.4291C10.6526 5.28223 10.8629 5.36973 11.0219 5.52848C11.1809 5.68748 11.2681 5.89798 11.2681 6.12122V9.35897C11.2681 9.82172 10.8916 10.198 10.4291 10.198H8.17065C8.0714 10.198 7.9764 10.2372 7.90615 10.307Z" fill="#BEAD8E"/>
<path id="Vector_3" d="M6.17825 7.2467C5.87325 7.2467 5.625 7.4952 5.625 7.79995C5.625 8.1047 5.8735 8.3532 6.17825 8.3532C6.4835 8.3532 6.732 8.1047 6.732 7.79995C6.732 7.4952 6.48375 7.2467 6.17825 7.2467Z" fill="#BEAD8E"/>
<path id="Vector_4" d="M8.00052 7.2467C7.69552 7.2467 7.44727 7.4952 7.44727 7.79995C7.44727 8.1047 7.69577 8.3532 8.00052 8.3532C8.30602 8.3532 8.55427 8.1047 8.55427 7.79995C8.55427 7.4952 8.30602 7.2467 8.00052 7.2467Z" fill="#BEAD8E"/>
<path id="Vector_5" d="M9.82181 7.2467C9.5168 7.2467 9.26855 7.4952 9.26855 7.79995C9.26855 8.1047 9.51706 8.3532 9.82181 8.3532C10.1271 8.3532 10.3756 8.1047 10.3756 7.79995C10.3756 7.4952 10.1271 7.2467 9.82181 7.2467Z" fill="#BEAD8E"/>
</g>
</g>
</g>
<defs>
<clipPath id="clip0_24_2684">
<rect width="16" height="16" fill="white" transform="translate(0 0.550049)"/>
</clipPath>
</defs>
</svg>
