<svg width="16" height="17" viewBox="0 0 16 17" fill="none" xmlns="http://www.w3.org/2000/svg">
<g id="svg-gobbler - 2022-03-03T180356.761 1" clip-path="url(#clip0_25_3386)">
<g id="Group">
<g id="Group_2">
<path id="Vector" d="M15.4521 2.27013H13.4245C13.2836 1.75759 12.8092 1.38147 12.2618 1.38147H4.21359C3.6585 1.38147 3.19009 1.75866 3.05053 2.27013H0.547938C0.245813 2.27013 0 2.51594 0 2.81809V3.33275C0 3.63487 0.245813 3.88069 0.547938 3.88069H3.00791V8.29137C3.00791 8.42106 3.11303 8.52621 3.24275 8.52621C3.37247 8.52621 3.47759 8.42106 3.47759 8.29137V2.58716C3.47759 2.18134 3.80775 1.85116 4.21359 1.85116H11.3075C11.15 2.05491 11.0562 2.31031 11.0562 2.58716V11.0897H3.47759V9.23071C3.47759 9.10102 3.37244 8.99587 3.24275 8.99587C3.11306 8.99587 3.00791 9.10102 3.00791 9.23071V14.1143C3.00791 14.5028 3.32394 14.8188 3.71241 14.8188H10.8213C11.2098 14.8188 11.5258 14.5028 11.5258 14.1143V10.6938H12.763C13.1514 10.6938 13.4675 10.3778 13.4675 9.98934V5.87809C13.4675 5.7484 13.3623 5.64325 13.2326 5.64325C13.1029 5.64325 12.9978 5.74837 12.9978 5.87809V9.98934C12.9978 10.1188 12.8924 10.2242 12.7629 10.2242H11.5258V3.88069H12.9978V4.93875C12.9978 5.06843 13.1029 5.17359 13.2326 5.17359C13.3623 5.17359 13.4675 5.06847 13.4675 4.93875V3.88069H15.452C15.7542 3.88069 16 3.63487 16 3.33275V2.81809C16 2.51594 15.7542 2.27013 15.4521 2.27013ZM0.547938 3.41103C0.504781 3.41103 0.469656 3.37591 0.469656 3.33275V2.81809C0.469656 2.77494 0.504781 2.73981 0.547938 2.73981H3.00791V3.41103H0.547938ZM12.2618 1.85116C12.5502 1.85116 12.8051 2.02228 12.9248 2.27016H11.5977C11.7163 2.02256 11.9694 1.85116 12.2618 1.85116ZM10.8213 14.3491H3.71244C3.58297 14.3491 3.47759 14.2438 3.47759 14.1143V13.105H8.34966C8.47934 13.105 8.5845 12.9999 8.5845 12.8702C8.5845 12.7405 8.47934 12.6353 8.34966 12.6353H3.47759V11.5594H11.0562V12.6353H9.289C9.15931 12.6353 9.05416 12.7405 9.05416 12.8702C9.05416 12.9999 9.15931 13.105 9.289 13.105H11.0562V14.1143C11.0561 14.2438 10.9508 14.3491 10.8213 14.3491ZM15.5303 3.33275C15.5303 3.37591 15.4952 3.41103 15.4521 3.41103H11.5258V2.73981H15.4521C15.4952 2.73981 15.5303 2.77494 15.5303 2.81809V3.33275Z" fill="#BEAD8E"/>
</g>
</g>
</g>
<defs>
<clipPath id="clip0_25_3386">
<rect width="16" height="16" fill="white" transform="translate(0 0.100098)"/>
</clipPath>
</defs>
</svg>
