<svg width="16" height="17" viewBox="0 0 16 17" fill="none" xmlns="http://www.w3.org/2000/svg">
<g id="925808_wifi_icon 1">
<path id="Vector" d="M7.95 9.42094C7.24315 9.42094 6.53629 9.712 6.07892 10.2525C5.66312 10.7515 4.91469 10.0862 5.33048 9.58726C5.99576 8.83882 6.95209 8.42303 7.95 8.42303C8.94791 8.42303 9.90424 8.83882 10.5695 9.58726C10.9853 10.0862 10.2369 10.7515 9.82108 10.2525C9.36371 9.712 8.65685 9.42094 7.95 9.42094ZM7.95 12.9136C7.40946 12.9136 6.95209 12.4563 6.95209 11.9157C6.95209 11.3752 7.40946 10.9178 7.95 10.9178C8.49053 10.9178 8.94791 11.3752 8.94791 11.9157C8.94791 12.4563 8.49053 12.9136 7.95 12.9136ZM7.95 6.92616C6.61945 6.92616 5.41364 7.38354 4.45731 8.33987C4.04151 8.75566 3.2515 8.13197 3.75046 7.63301C4.87311 6.51036 6.36997 5.92825 7.95 5.92825C9.53003 5.92825 11.0269 6.51036 12.1495 7.63301C12.6485 8.13197 11.8585 8.75566 11.4427 8.33987C10.4864 7.38354 9.28055 6.92616 7.95 6.92616ZM7.95 4.43138C6.03734 4.43138 4.24941 5.13824 2.87728 6.4272C2.37833 6.88458 1.67147 6.17773 2.17043 5.72035C3.79204 4.22348 5.78786 3.43347 7.95 3.43347C10.1121 3.43347 12.108 4.22348 13.7296 5.72035C14.2285 6.17773 13.5217 6.88458 13.0227 6.4272C11.6506 5.13824 9.86266 4.43138 7.95 4.43138Z" fill="#BEAD8E"/>
</g>
</svg>
